<?xml version="1.0" encoding="UTF-8"?>
<svg id="Layer_1" xmlns="http://www.w3.org/2000/svg" xmlns:xlink="http://www.w3.org/1999/xlink" version="1.1" viewBox="0 0 468 469.3">
  <!-- Generator: Adobe Illustrator 29.0.0, SVG Export Plug-In . SVG Version: 2.1.0 Build 186)  -->
  <defs>
    <style>
      .st0, .st1 {
        fill: none;
      }

      .st2 {
        fill: #231f20;
      }

      .st3 {
        fill: #52abb2;
      }

      .st1 {
        stroke: #231f20;
        stroke-miterlimit: 10;
      }

      .st4 {
        fill: #e16539;
      }

      .st5 {
        clip-path: url(#clippath-1);
      }

      .st6 {
        fill: #f0dfc8;
      }

      .st7 {
        fill: #100c0a;
      }

      .st8 {
        fill: #5e5e5e;
      }

      .st9 {
        fill: #ecdbc5;
      }

      .st10 {
        fill: #313131;
      }

      .st11 {
        clip-path: url(#clippath);
      }
    </style>
    <clipPath id="clippath">
      <rect class="st0" x="100.9" y="303.1" width="207.5" height="104.2" transform="translate(-65.1 46.5) rotate(-11.2)"/>
    </clipPath>
    <clipPath id="clippath-1">
      <rect class="st0" x="94.7" y="298.1" width="208.2" height="104.2" transform="translate(-64.2 45.3) rotate(-11.2)"/>
    </clipPath>
  </defs>
  <g id="BG_Circles">
    <circle class="st6" cx="234" cy="234.7" r="231.8"/>
    <circle class="st6" cx="234" cy="234.7" r="198.5"/>
    <circle class="st2" cx="234" cy="234.7" r="213.3"/>
    <circle class="st4" cx="234" cy="234.7" r="212.3"/>
  </g>
  <g id="NE">
    <g class="st11">
      <path class="st3" d="M316,384.6v.8c-.2.7-.7,1.2-1.4,1.4l-75.7,14.1-78.5,12.5c-.9.2-2,0-2.7-.6-.8-.6-1.3-1.5-1.4-2.4l-3.3-26.6c-.1-.6-.6-1-1.2-1l-42.8,4.8c-1,0-1.9-.2-2.6-.8s-1.3-1.5-1.4-2.4l-6-56.2c-.2-2.3,1.4-4.4,3.7-4.9l41-6.7,38.2-4.4,39.3-7.8c1.2-.2,2.5-.2,3.7.2.7.3,1.4.7,2.1,1.1.5.3,1,.6,1.5.8.7.3,1.4.6,2.1.9l5.6,2.5c.5.2,1,.1,1.5-.2l2.1-1.7c2.4-2,5.7-2.5,8.6-3,.8-.2,1.6-.2,2.3-.4,2.2-.4,3.9.2,5.7.9.8.3,1.6.6,2.4.8.6.1,1.1.2,1.7.2,1.2.2,2.5.4,3.8.9l4.1,1.9,2,2.2c.3.4.9.6,1.4.5l.9-.2c1.5-.3,2.9.4,3.7,1.8,1.2,2.4,2.6,4.9,4.3,8.2l1.8,3.4,3.7,7.3,2.3,4.1c.3.6.8,1.1,1.3,1.8.7.8,1.4,1.8,2,2.9.4.8.6,1.7.8,2.5.4,1.2.7,2.4,1.3,3.4l2.3,4,2.4,5.6c.1.7.2,1.6.4,2.3.3,1.9.5,3.9,1.5,5.4.3.5.9.9,1.5,1.3.8.5,1.4,1.1,2,2,.5.8.7,1.5,1,2.3s.5,1.5,1,2.2c.6.9.9,1.8,1.2,2.6.3.8.4,1.5,1,2.1.4.5,1,.8,1.6,1.2.5.3,1.1.6,1.6,1.1.8.7,1.4,1.5,2,2.1.7.8,1.4,1.7,2.3,2.3,0,.1.3.6.4,1h0Z"/>
    </g>
    <g class="st5">
      <path class="st8" d="M307.9,381.4l-75.8,14.1-78.2,12.5c-.9.2-2,0-2.7-.6-.8-.6-1.3-1.5-1.4-2.4l-3.3-26.6c-.1-.6-.6-1-1.2-1l-42.9,4.7c-1,0-1.9-.2-2.6-.8-.8-.6-1.3-1.5-1.4-2.4l-6-56.2c-.2-2.3,1.3-4.5,3.6-4.8l41-6.7,38.3-4.4,39.3-7.8c1.2-.2,2.5-.2,3.7.2.7.3,1.4.7,2.1,1.1.5.3,1,.6,1.5.8.7.3,1.4.6,2.1,1l5.6,2.5c.5.2,1,.1,1.5-.2l2.1-1.7c2.4-2,5.7-2.5,8.6-3,.8-.2,1.6-.2,2.3-.4,2.2-.4,3.9.2,5.7.9.8.3,1.6.6,2.4.8.6.1,1.1.2,1.7.2,1.2.2,2.5.4,3.8.9l4.1,1.9,2,2.2c.3.4.9.6,1.4.5l.9-.2c1.5-.3,2.9.4,3.7,1.8,1.2,2.4,2.6,4.9,4.3,8.2l1.8,3.4,3.7,7.3,2.3,4.1c.3.6.8,1.1,1.3,1.8.7.8,1.4,1.8,2,2.9.4.8.6,1.7.8,2.5.4,1.2.7,2.4,1.3,3.4l2.4,4,2.4,5.6c.1.7.2,1.6.4,2.3.3,1.9.5,3.9,1.5,5.4.3.5.9.9,1.5,1.3.8.5,1.4,1.1,2,2,.5.8.7,1.5,1,2.3s.5,1.5,1,2.2c.6.9.9,1.8,1.2,2.6s.4,1.5,1,2.1c.4.5,1,.8,1.6,1.2.5.3,1.1.6,1.6,1.1.8.7,1.4,1.5,2,2.1.7.8,1.4,1.7,2.3,2.3.6.4.9,1.1.7,1.8-.5.5-1.1,1.1-1.8,1.2h-.2ZM96.1,319.6c-1.2.2-2.1,1.4-2,2.7l6,56.3c0,.4.3.8.7,1.2.4.2.8.4,1.3.4l42.8-4.8c1.6-.2,3.1,1,3.4,2.7l3.3,26.6c0,.4.3.8.7,1.2.4.2.8.4,1.2.3l78.3-12.4,75.4-14c-1-.8-1.7-1.6-2.4-2.4-.6-.6-1.1-1.3-1.8-1.9-.4-.4-.9-.6-1.4-.9-.7-.4-1.5-.8-2-1.5-.8-.9-1.1-1.9-1.4-2.9-.2-.7-.4-1.4-.8-2-.7-.8-1-1.9-1.3-2.8-.2-.7-.5-1.3-.8-1.9s-1-1-1.6-1.5-1.3-1-1.9-1.8c-1.4-1.9-1.6-4.1-1.9-6.2,0-.8-.2-1.5-.3-2.1l-2.3-5.3-2.3-3.8c-.8-1.2-1.2-2.6-1.5-3.8-.3-.8-.4-1.5-.8-2.3-.4-.9-1-1.6-1.7-2.4-.6-.6-1.1-1.3-1.5-2.1l-2.3-4.2-5.5-10.7c-1.7-3.3-3-5.8-4.3-8.2-.3-.6-.9-.9-1.6-.8h-.6c-1.2.4-2.4,0-3.2-1l-1.7-1.8-3.7-1.7c-1-.5-2.1-.6-3.2-.7-.6-.1-1.2-.2-1.8-.3-1-.2-1.8-.5-2.8-.9-1.5-.6-3-1.1-4.7-.8-.7.1-1.6.3-2.4.4-2.8.5-5.7.9-7.6,2.5l-2.1,1.7c-1,.9-2.3,1-3.5.5l-5.6-2.5c-.7-.3-1.4-.6-2.1-.9-.6-.3-1.2-.6-1.7-1-.6-.3-1.1-.6-1.7-.9-.8-.3-1.8-.4-2.6-.2l-39.5,7.8-38.1,4.6-41,6.6h-.1Z"/>
    </g>
  </g>
  <g id="MI">
    <path class="st3" d="M235.8,116.6h-.6c0,0-.2,0-.2,0v-1.9c0-.2-.1-.8-.1-1.3s-.5-.9-1-.9-.1,0-.2,0c-.5,0-1,.5-1.2.9-.2.3-.4.7-.5.8-.2.2-.5,1.8-.6,2.2-.2.2-1.3,1.1-1.4,1.2-.1,0-.1,0-1.1,2.2-.5,1-.9,2-.9,2-.2.4-.5.9-.6,1.2l-1.7,2.9c-.2.3-.5.9-.8,1.2l-1.2,1.8c-.2.3-.6.8-.8,1.1l-1.5,1.7c-.3.3-.6.9-.8,1.4v.3c-.2.2-.4.4-.6.4s-.7-.2-.9-.4l-.5-.6c-.2-.2-.3-.7-.3-.9l.2-.8c0-.4.3-.9.4-1.2l.5-1.1c.2-.4.4-1,.5-1.4v-.3c.2-.5,0-1.1-.3-1.4-.2,0-.4-.2-.7-.2s-.6,0-.8.2l-.5.3c-.3.2-.8.3-1.1.3h-.1c-.4,0-.8,0-.9-.2v-.5l.2-.7c0-.4.3-.9.5-1.2h0c.2-.4.4-1.1.6-1.5v-.3c.2-.4.4-1,.4-1.4l.2-.8c0-.4.1-1.1.1-1.5v-1c0-.5-.4-1.1-.7-1.4l-1.4-1.4c-.3-.3-.8-.7-1.2-.9l-.7-.4c-.4-.2-1-.4-1.5-.4h0c-.3,0-.7-.2-1-.4h0c-.2-.2-.3-.6-.2-.8v-.2c.3-.4.3-1.1.1-1.6v-.2c-.3-.5-.7-1-1.2-1.1l-1.2-.5c-.4,0-1-.4-1.4-.5l-2.2-.6c-.4,0-1-.3-1.4-.4l-1.5-.5c-.4,0-1.1-.2-1.5-.2h-1.9c-.4,0-.9,0-1.3-.2-1-.4-2.2-.9-2.4-1h0c0,0-.4-.3-2.4-1.6l-2.3-1.5-1.4-.7-20.5-7c-.3,0-.6-.4-.6-.7l-.4-1.6c-.1-.4-.4-1-.6-1.4l-.5-.8c-.2-.4-.8-.9-1.2-1.1l-.6-.3c-.4-.2-.9-.4-1.3-.6-.3,0-.6-.4-.8-.6h0c0,0,0-.2.2-.3l.8-.3c.3-.2.9-.4,1.3-.4l1.3-.3c.4,0,1-.3,1.4-.4l2.6-.8c.4,0,1-.4,1.4-.8l1.9-1.6c.3-.2.8-.6,1.1-.8l.5-.3c.3-.2.8-.4,1.2-.4l1.6-.2h4.6c.4,0,1.1-.2,1.5-.3l2.5-.9c.4-.2,1-.5,1.3-.8l1.7-1.7c.2-.2.7-.4,1-.4h1.7c.5,0,1.1-.4,1.5-.6l.5-.3c.4-.2.9-.7,1.1-1.1l.7-1c.2-.3.6-.6.9-.8l1.5-.7c.4-.2,1-.6,1.3-.9l.5-.5c.2-.2.8-.6,1.1-.7l1.3-.6c.4-.2,1-.6,1.3-.9l1.2-1.5c.2-.3.7-.7,1-.8l1.9-1.1c.3-.2.9-.4,1.2-.6l2-.6c.4,0,1-.3,1.4-.3l2.3-.4c.4,0,1,0,1.4,0h2.1c.3,0,.9.2,1.1.4l.9.6c.2.2.4.5.4.7s-.2.3-.5.3h-.8c-.2,0-.5,0-.8,0h-2.1c-.3,0-.6,0-.8.2s-.2.5-.2.7-.1.6-.4.7l-1.3.7c-.4.2-.9.6-1.2.9l-1.4,1.3c-.3.3-.8.8-1,1.1l-.7.8c-.3.3-.7.8-.9,1.1l-1.3,1.7c-.2.3-.6.9-.8,1.2l-.6,1.1c-.2.3-.5.8-.7,1-.3.3-.6.8-.8,1.2l-.3.7c-.2.4-.3,1.1-.4,1.5v.5c0,.5.2,1.1.6,1.3.1,0,.3,0,.5,0,.3,0,.7,0,1-.4l1.3-1.2c.3-.2.8-.6,1.1-.8l2.6-1.5c0,.2,0,.5.1.7.2.2.4.4.7.4,2.3.2,2.7.2,2.8.2h0c.2,0,1.7.3,2.6.4.4,0,.9.3,1.2.4l.8.4c.3.2.8.5,1.1.8l.2.2,1,1,.9,1.1c.2.3.6.8.8,1.1l.6,1c.2.3.5.9.7,1.2l.3.5c.2.4.8.9,1.2,1.1l.6.2c.2,0,.4.4.4.6v.6c-.1.5.2,1.1.7,1.4l1,.5c.4.2,1.1.4,1.5.4h2.2c.5,0,1.2,0,1.6,0l1-.4c.2,0,.4,0,.6,0h.3c.2,0,.5.4.6.7h0c.2.4.6,1,.9,1.3.3.2.7.4,1.1.4s.3,0,.4,0h.5c.2-.2.5-.2.8-.2h.8c.5,0,1-.3,1.1-.7.1-.3.4-.8.5-1.2l.4-.7s0,0,.1,0c.1.2.4.6.5.9.2.5.6.9,1.1.9h0c.4,0,1-.3,1.3-.6l.4-.4c.2-.2.8-.6,1.1-.7l2.5-1.1c.4-.2,1-.4,1.3-.6l2.2-1.1c.3,0,.8-.3,1.2-.2h.4c.4,0,.9,0,1.3,0l2.7-.6h1.3l2.7.5c.3,0,.9,0,1.3,0h2.1c.4,0,1.1-.3,1.5-.4l2-.8c.4,0,1-.3,1.3-.4l3.4-.6c.4,0,1.1-.2,1.5-.3l.9-.2c.4,0,1-.2,1.4-.3h0v.3c-.1.4-.2,1-.3,1.4l-.2.9c0,.4-.2,1-.3,1.4-.1.8-.1,1-.1,1v1.1c0,.5,0,1.1.2,1.4.1.4.6.9,1.2,1l.6.2c.4,0,1,.3,1.3.4.1,0,.6.2,1,.2s.2,0,.3,0c.3,0,2.4-.3,3.8-.5h0c.3,0,.7,0,.9.3l.8.8c.2.2.6.4,1,.4s.4,0,.6,0h0c.4-.2,1-.6,1.2-.9l.3-.3c.2-.2.6-.5,1-.5l1.8-.2c.5,0,1.1-.3,1.5-.6l.2-.2c.3-.2.8-.4,1.1-.4h.8s.1.2.2.3c.1.3.2.8.1,1.1l-.4,1.8c-.1.5,0,1.1.3,1.6v.2c.3.3.5.8.5,1.2v.8c0,.3-.2.7-.3.9s-.6.3-.9.3h-.7c-.6,0-1.1.4-1.2.9v1.4q0,.4.3.4h2.2c.3,0,.8,0,1.1.3h.1c.2.2.4.6.4.8,0,.4.1,1,.4,1.4l.4.6c.3.4.8.8,1.2,1h.2c.4.3,1,.6,1.4.7h.2c.2,0,.5.2.8.2s.6,0,.8,0c.5-.2.9-.7.9-1.3v-1.3c0-.4.2-.3.4-.4h.7c.1,0,.2,0,.4,0,.3,0,.7,0,.9,0h.4c.3.2.8.4,1.1.7h.1c.3.4.7.8.9,1.1h0c.3.4.7.8.9,1,0,0,.2.3.1.6l-.3,1.1c0,.2-.3.5-.5.6h-1.2l-1.2-.3c-.4,0-1.1-.2-1.5-.2h-1.9c-.1,0-.5,0-.9-.2-1.4-.4-1.7-.4-1.8-.4-.2,0-1.7-.2-2.6-.3-.4,0-1,0-1.5,0h-.7c-.4,0-1.1,0-1.5.2l-1.3.3c-.4,0-1,.2-1.4.2h-.4c-.4,0-.8,0-1.1-.2l-.5-.2c-.4,0-.9-.4-1.2-.6l-.8-.5c-.3-.2-.9-.6-1.2-.8h-.2c-.4-.4-1.1-.6-1.6-.5-.1,0-.5,0-.7.4,0,0-.2.4-.4,1-.1.3-.3.7-.3.8-.1.2-.2.6-.2.8v1.8c0,.3,0,.6-.2.6h-.9l-1.4-.4c-.3,0-.8-.4-1-.7-.9-1-1.8-2.2-2-2.4,0,0-.3-.3-2.2-1.3-.4-.2-1-.4-1.4-.6l-3.9-1.2c-.3,0-.8-.2-1.3-.2s-.2,0-.3,0l-2.2.2c-.5,0-1.1.4-1.5.7l-1.7,1.8c-.2.2-.7.5-1,.5h-.4c-.4.2-1,.3-1.4.3l-1.2.2c-.5,0-1,.3-1.3.4h-.8l-1.4-.3c-.4,0-1-.2-1.4-.3h-.5c-.3,0-.8-.2-1.2-.2h-1.7c-.5,0-1.1.5-1.4.9l-.5.6c-.2.3-.6.9-.8,1.3v.2c-.3.3-.6.8-.8,1.1l-.5.6c-.2.3-.7.6-1,.8l-1.4.8c-.4.2-.9.7-1.2,1l-.6.8c-.2.3-.6.9-.7,1.3-.1.2-.4.4-.6.5h0c-.3,0-.6,0-.8-.3s-.2-.5-.1-.8v-.3c.2-.3.5-.8.7-1l.2-.2c.3-.3.7-.7.9-.9.2-.3.6-.8.8-1.1l.4-.7c.2-.4.4-1.1.4-1.5v-.2c0-.6-.4-1-.9-1h0c-.3,0-.8.2-1.1.4-.3.2-.7.5-.9.7-.1,0-.4.2-.7.2h-.7c-.5,0-1.1.3-1.3.7,0,0-.3.4-.4.6,0,0-.5.8-1,1.5-.2.3-.6.8-.9,1.1h0c-.2.3-.7.6-1,.6h.2Z"/>
    <path class="st1" d="M232.4,114.9c0,.3.1.5.3.7s.5.3.9.3h.6c.5,0,1.1-.5,1.5-.8h.1c.3-.4.7-.9,1-1.3s.9-1.4,1-1.6c0,0,.2-.4.3-.5.1-.2.4-.4.7-.4h.6c.4,0,.9,0,1.2-.4.2-.2.6-.5.9-.7.2-.2.6-.3.7-.3,0,0,.1,0,.1.3v.2c0,.3-.1.9-.3,1.1l-.4.7c-.2.3-.5.8-.7,1s-.6.6-.9.9l-.2.2c-.3.3-.7.9-.8,1.4v.3c-.2.5,0,1.1.2,1.4.3.3.9.5,1.4.5s1.1-.4,1.3-.9c.1-.3.5-.9.7-1.2l.6-.8c.2-.3.6-.7.9-.8l1.4-.8c.4-.2.9-.6,1.2-1l.5-.6c.3-.3.6-.9.8-1.3v-.2c.2-.3.6-.9.8-1.2l.5-.6c.2-.2.6-.5.9-.5h1.3c0,0,.2,0,.3,0h1.5c.4.2,1,.3,1.4.4l1.4.3h.5c.2,0,.6,0,.9-.2.2,0,.6-.3,1-.3l1.2-.2c.4,0,1.1-.2,1.5-.2h.4c.5-.2,1.1-.5,1.4-.8l1.7-1.8c.2-.2.7-.4,1-.5l2.2-.2h.2c.4,0,.8,0,1,0l3.9,1.2c.4,0,1,.4,1.3.5.8.4,1.8.9,1.9,1.1s.6.8,2,2.5c.3.4.9.8,1.3.9l1.4.4c.2,0,.4,0,.7,0s.5,0,.8-.2c.4-.2.6-.8.6-1.3v-2.2s.1-.3.4-.9c.1-.3.3-.7.3-.8h.2c.3,0,.8,0,1.1.3h.2c.3.3.9.7,1.2.9l.8.5c.4.2,1,.6,1.3.7l.5.2c.4,0,.9.2,1.4.2s.1,0,.2,0h.2c.4,0,1.1-.2,1.5-.3l1.3-.3c.4,0,1-.2,1.4-.2h2.1c.9,0,2.4.3,2.7.4.1,0,1.1.2,1.6.4.7.1,1,.2,1.1.2h1.9c.4,0,1,0,1.4.2l1.2.3h1.6c.5,0,1-.6,1.1-1.1l.3-1.1c.1-.5,0-1.1-.4-1.4-.2,0-.5-.5-.8-.8h0c-.2-.4-.7-.9-1-1.2h-.1c-.3-.4-1-.7-1.4-.9h-.4c-.3-.2-.7-.2-1.1-.2h-1.2c-.6.2-1,.6-1,1.2v1.3c0,.2-.2.5-.4.5h-1.4c-.4-.2-.9-.4-1.3-.6h-.2c-.3-.3-.7-.7-.9-.9l-.4-.6c-.2-.3-.3-.7-.3-.9,0-.5-.2-1-.7-1.3h-.1c-.4-.4-1.1-.6-1.6-.5h-1.8v-1.1c0,0,.2-.3.5-.3h.7c.5,0,1.1-.2,1.4-.5s.5-.9.5-1.4v-.8c0-.4-.2-1.1-.4-1.5v-.2c-.3-.3-.4-.8-.3-1.1l.4-1.7c.1-.4,0-1.1-.2-1.6-.3-.7-.6-.8-.7-.8h-1c-.5,0-1.1.3-1.5.6l-.2.2c-.3.2-.8.4-1.1.4l-1.8.2c-.5,0-1.1.4-1.4.8l-.3.3c-.2.3-.7.6-1,.8h-.3c-.2,0-.4,0-.5-.2l-.8-.8c-.3-.3-.9-.6-1.4-.6s-.1,0-.1,0c-3.3.3-3.9.5-4,.5s-.5,0-.7-.2c-.4-.2-1-.4-1.4-.5l-.6-.2c-.3,0-.6-.4-.7-.6-.1-.3-.2-.8-.1-1.2v-1.1c0,0,0-.5.1-.9,0-.4.2-1,.3-1.4l.2-.9c0-.4.2-1,.3-1.4v-.2c0-.3,0-.5-.1-.7-.2-.2-.5-.3-.8-.3s-1,.2-1.5.3l-.9.2c-.4,0-1,.2-1.4.3l-3.4.6c-.4,0-1.1.2-1.5.4l-2,.8c-.3,0-.9.3-1.3.3h-1.9c0,0-.1,0-.2,0h-1.1l-2.7-.5h-1.6l-2.7.6c-.3,0-.8,0-1.1,0s-.2,0-.2,0h-.1c-.5,0-1.2,0-1.6.3l-2.2,1.1c-.4.2-.9.5-1.3.6l-2.5,1.1c-.4.2-1,.6-1.3.9l-.4.4c-.2.2-.6.4-.8.4s-.3-.2-.4-.4c-.1-.4-.4-1-.6-1.2s-.3-.2-.5-.2c-.3,0-.6.2-.8.6l-.4.7c-.2.4-.4.9-.6,1.2,0,0-.2.2-.4.2s0,0-.1,0h-.7c-.4,0-.8,0-1.1,0h-.5c0,.2-.1.2-.2.2-.2,0-.5,0-.6-.2-.3-.2-.6-.7-.8-1h0c-.2-.4-.6-.9-1-1.1-.1,0-.3,0-.6,0s-.6,0-.9.2l-1,.4c-.3,0-.9.2-1.2.2h-2.2c-.3,0-.9-.3-1.2-.4l-1-.5c-.2,0-.4-.4-.4-.7v-.6c.1-.6-.2-1.1-.8-1.3l-.6-.2c-.3,0-.7-.4-.8-.7l-.3-.5c-.2-.4-.5-.9-.7-1.3l-.6-1c-.2-.4-.6-.9-.9-1.2l-.9-1.1c-.3-.3-.7-.8-1-1.1l-.2-.2c-.3-.3-.9-.7-1.2-.9l-.8-.4c-.4-.2-1-.4-1.5-.5-1.2-.2-1.9-.3-2.2-.4h-.5c-.1,0-1.8,0-2.8-.2h-.2c0,0,0,0,0-.2h0c.1-.5,0-.7,0-.8-.1,0-.3-.2-.4-.2s-.3,0-.5,0l-2.8,1.6c-.4.2-.9.6-1.2.9l-1.3,1.2c-.1,0-.3.2-.5.2s0,0-.1,0-.2-.4-.2-.6v-.5c0-.4.2-.9.3-1.3l.3-.7c.1-.3.4-.8.6-1,.2-.3.6-.8.8-1.1l.6-1.1c.2-.3.5-.9.8-1.2l1.3-1.7c.2-.3.6-.8.9-1.1l.7-.8,1-1,1.4-1.3c.3-.2.8-.6,1.1-.8l1.3-.7c.5-.3.8-.9.7-1.4v-.2h1.7c.2,0,.4,0,.6,0h1.7c.6,0,1.1-.6,1.1-1.1s-.2-1-.7-1.3l-.9-.6c-.4-.2-1.1-.5-1.5-.5h-2.2c-.4,0-1,0-1.4,0l-2.3.4c-.4,0-1.1.2-1.5.4l-2,.6c-.4,0-1,.4-1.4.6l-1.9,1.1c-.4.2-.9.7-1.2,1l-1.2,1.5c-.2.3-.7.6-1,.8l-1.3.6c-.4.2-1,.6-1.3.9l-.5.5c-.3.2-.8.6-1.1.7l-1.5.7c-.4.2-1,.6-1.2,1l-.7,1c-.2.3-.6.7-.9.9l-.5.3c-.3.2-.8.4-1.2.4h-1.7c-.5,0-1.1.4-1.5.8l-1.7,1.7c-.2.2-.8.6-1.1.7l-2.5.9c-.3,0-.9.2-1.3.2h-4.6l-1.6.2c-.5,0-1.1.3-1.5.5l-.5.3c-.3.2-.9.6-1.2.9l-1.9,1.6c-.3.2-.8.5-1.1.6l-2.6.8c-.4,0-1,.3-1.4.4l-1.3.3c-.4,0-1.1.3-1.4.5l-.8.3c-.3,0-.5.4-.6.6,0,.2,0,.5.1.7.2.4.8.7,1.1.9.3,0,.9.4,1.2.5l.6.3c.3,0,.7.5.9.8l.5.8c.2.3.4.9.5,1.2l.4,1.6c.1.5.6,1,1.1,1.2l20.5,7c.4,0,.9.4,1.2.6,1.7,1.1,4.2,2.8,4.5,2.9h0c.1,0,.6.3,2.5,1.1.4.2,1.1.3,1.5.3h1.9c.4,0,1,0,1.3.2l1.5.5c.4,0,1,.3,1.4.4l2.2.6c.4,0,1,.3,1.4.4l1.2.5c.3,0,.6.4.7.7v.2c.2.3.2.8,0,1.1v.2c-.3.5-.1,1.2.3,1.5h0c.4.4,1,.6,1.5.6h0c.3,0,.8,0,1.1.3l.7.4c.3.2.8.6,1.1.8l1.4,1.4c.2.2.4.7.5,1v2.3l-.2.8c0,.4-.2,1-.4,1.4v.3c-.2.4-.4.9-.6,1.3h0c-.2.5-.4,1.1-.5,1.5l-.2.7c-.1.5,0,1.1.4,1.3.3,0,.9.2,1.2.2h0c.5,0,1.2-.2,1.6-.4l.5-.3c.1,0,.3,0,.4,0h.2c.1,0,.2.4.1.7v.3c-.2.4-.4.9-.5,1.2l-.5,1.1c-.2.4-.4,1-.5,1.4l-.2.8c-.1.5,0,1.1.4,1.5l.5.6c.3.4,1,.7,1.4.7s1.1-.4,1.2-.9v-.3c.2-.3.5-.8.7-1.1l1.5-1.7c.3-.3.7-.8.9-1.2l1.2-1.8c.2-.3.6-.9.8-1.2l1.7-2.9c.2-.4.5-.9.7-1.3.6-1.4,1.7-3.6,1.9-4,.2,0,.5-.4.8-.6.8-.7.9-.8.9-.9,0-.2.4-1.8.5-2s.4-.7.5-.8c.2-.3.5-.5.8-.6.1,0,.2,0,.3.3,0,1,.1,1.3.2,1.5v1.4h0v.5Z"/>
    <path class="st3" d="M183.7,54l.7.2c.2,0,.5,0,.8,0h.4l1.5-.3c.4,0,1-.3,1.4-.4h.2v-.2c-.2-.2-.3-.5-.3-.8s.5-.8.9-1l.7-.3c.4-.2,1.1-.4,1.5-.5h.4c.4-.2,1-.4,1.4-.5l1-.3c.4,0,.9-.4,1.2-.6l1.1-.8c.3-.2.6-.5.6-.6.1-.3.5-.7.9-1l.7-.4c.3-.2.9-.6,1.2-.8h0c.1-.2.2-.3.2-.3h-1.5c-.4.2-1,.4-1.3.5l-1.7.8c-.4.2-.9.5-1.2.7l-1.1.7c-.4.2-1,.6-1.4.7l-2.2.9c-.4.2-1,.4-1.4.6l-3.8,1.8c-.3,0-.7.5-.9.8l-.5.8v.2s0,0,.2.2h0l.3-.2Z"/>
    <path class="st1" d="M182.5,52l.7.2c.3,0,.7.2,1.1.2h.6l1.5-.3c.4,0,1.1-.3,1.5-.5h.3c.4-.3.6-.5.6-.8s0-.3-.3-.4c0,0-.1-.2-.1-.3,0,0,.2-.3.5-.4l.7-.3c.4-.2,1-.4,1.4-.5h.4c.4-.2,1.1-.4,1.5-.5l1-.3c.4,0,1.1-.4,1.4-.7l1.1-.8c.4-.2.8-.7.9-1,0,0,.3-.4.6-.6l.7-.4c.4-.2.9-.6,1.3-.9h0c.3-.3.5-.6.5-.9s0-.4-.2-.5c-.3-.3-.9-.3-1-.3h-1.1c-.5.2-1.1.4-1.5.6l-1.7.8c-.4.2-1,.5-1.4.8l-1.1.7c-.3.2-.9.5-1.3.7l-2.2.9c-.4.2-1,.4-1.4.6l-3.8,1.8c-.4.2-1,.7-1.2,1.1l-.5.8c-.1.3-.2.6,0,.8s.3.5.6.6h0v-.2Z"/>
    <path class="st3" d="M291.7,116c-.3,0-.8-.2-1.2-.3-.4,0-1-.3-1.3-.5s-.8-.5-1.1-.7c-.3-.2-.7-.5-1-.6h0v1c.2.2.7.6.9.7.1,0,.2,0,.6.4.5.4.6.5.6.5,0,0,.4.6.7,1,.2.3.6.6.8.7.3,0,.8.2,1,.2h0s.2,0,.3-.2c.1-.3.4-.7.5-1,0,0,0-.5-.1-.7s-.5-.5-.7-.6h0Z"/>
    <path class="st1" d="M292,114.4c-.3,0-.9-.2-1.2-.3-.3,0-.8-.3-1-.4-.3-.2-.8-.5-1.1-.7-.3-.2-.8-.5-1.1-.6h-.4c-.4,0-.7.3-.8.7v1.6h0c0,.2,0,.3.7.7.4.3.5.4.6.4.1,0,.7.5.9.7.1.2.5.8.7,1,.3.4.9.9,1.3,1,.3,0,.8.2,1,.2h.2c.4,0,.8-.2,1-.6.2-.3.4-.8.5-1.1.1-.4,0-1.1-.2-1.6-.3-.4-.8-.8-1.2-.9h.1Z"/>
    <path class="st3" d="M266.9,120.3h0c-.2-.2-.5-.4-.8-.4s0,0-.1,0h-.3c-.1.4-.5,1.4-.5,1.6s-.1.6-.1.9c0,.5-.2,1.3-.3,1.8h0c0,.4,0,.8.2,1s.6.4.8.4h0c.2,0,.5,0,.7-.4.2-.2.5-.8.6-1.2.1-.5.3-1.2.3-1.4s-.2-1.1-.3-1.7c0-.4-.1-.7-.1-.8h0v.2Z"/>
    <path class="st1" d="M265.3,118.1c-.3-.4-.9-.7-1.5-.7s-.2,0-.3,0c-.6,0-.7.2-.8.4,0,0-.7,1.9-.7,2s-.1.9-.2,1c0,.5-.2,1.3-.3,1.8h0c-.1.7,0,1.4.5,1.8.3.3.9.6,1.3.6h0c.4,0,1-.2,1.3-.6.3-.3.7-1,.8-1.6,0-.3.3-1.2.3-1.6s0-.8-.3-1.8c0-.3-.1-.6-.1-.7,0-.3,0-.4-.1-.5h.1Z"/>
    <path class="st3" d="M344.3,227.5l-.4,1.5c-.1.5-.3,1.3-.3,1.8l-.2,1.7c0,.5-.1,1.3-.2,1.8l-.2,2.2c0,.5-.2,1.2-.3,1.7l-.5,1.8c-.1.4-.4,1.1-.7,1.4l-.7.9c-.2.3-.8.8-1.1.9l-.4.2h-.3v-1.6h0c0-.6.3-1.2.5-1.4.3-.5.4-1.2.2-1.8-.2-.6-.9-1-1.5-1h0c-.5,0-1.2.3-1.7.5h-.3c-.5.4-1,1-1.2,1.6h0c-.2.6-.2,1.5,0,2.1,0,.3,0,.7-.3.8l-.6.5c-.5.4-.8,1.1-.8,1.8v1.6c0,.4-.1,1.1-.3,1.5l-.5,1.3c-.2.4-.6.9-.9,1.1l-.5.3c-.3.3-1,.6-1.4.8l-.8.4c-.5.2-1.1.8-1.3,1.4l-.8,2.2c-.2.5-.3,1.4-.2,2l.2,1.1v1.5c0,.4-.4,1-.7,1.3h-.1c-.4.6-.7,1.4-.7,2v.2c0,.4-.2.9-.5,1.2l-.8.8c-.4.3-.9.9-1.2,1.2l-.5.5c-.4.4-.9,1-1,1.5-.1.4-.5.9-.8,1.2l-.4.4c-.4.4-.8,1.2-.8,1.8v2.1l-35.2,1.7v-1.8c-.1-.2-.3-.4-.5-.4l-51.6-1.2,3.9-4c.4-.4.8-1,1.1-1.5l2.8-6c.2-.4.6-1.1.8-1.5l2.6-3.8c.3-.4.7-1.2.8-1.7l2.7-8c.2-.5.4-1.3.4-1.8l1.3-13c0-.5,0-1.4-.2-1.9l-4-14.6c-.1-.5-.3-1.2-.5-1.7l-1.7-6.3c-.1-.5-.4-1.3-.6-1.8-.4-.8-.7-1.6-.7-1.9.1-.5.3-2.7.3-3.1s.2-1.1.4-1.5l1.4-2.6c.3-.5.4-1.4.4-1.9l-.3-3.9c0-.5-.2-1.4-.3-1.9l-.6-2.2c-.1-.3,0-.9.2-1.2l1.7-2.4c.3-.4.7-1.1.9-1.6l2.6-5.3c.2-.5.5-1.3.6-1.8l-1.4-3.7c0-.5.2-1.3.3-1.8l.2-1.8c0-.6,0-1.4-.1-1.9l1.6-1.7c-.1-.4-.1-1.1,0-1.5h0c0-.4.4-.7.7-.8l1.8-.4c.6-.1,1.2-.7,1.3-1.4l.6-2.9c.1-.5.2-1.3.3-1.8v-.6c0-.2.1-.3.2-.4.3,0,.7.2,1,.2.5.1,1.1-.3,1.3-1l.2-.6c0-.3.4-.5.6-.5.3,0,.7.2.8.4.3.5,1,.6,1.6.2h.2c.5-.4,1-1.1,1.1-1.7l.4-1.5c.1-.4.5-1,.8-1.3l.6-.6c.4-.4.8-1.1,1-1.6l.8-1.8c.2-.3.6-.8.9-.9l.6-.3h.2c0,.1-.2.4-.4.6l-.5.4c-.4.3-.8,1-.8,1.5s.1,1.2.3,1.6v.2c.2.3.2.9,0,1.2l-.3.6c-.2.5-.4,1.4-.4,1.9v1.3c.1.4,0,1-.2,1.2-.3.4-.5,1.1-.6,1.7v1.1c-.1.5-.2,1.3-.1,1.8v.2c0,.4.2.7.4.9.3.2.6.1.9,0,.7-.4.7-.5.8-.6,0,0,0-.1.4-.9.3-.7.4-.9.3-1,0-.3.2-1.6.3-1.8,0-.2.1-.5.3-1.6,0-.4.4-1,.6-1.3.1-.1.2-.2.2-.1s.1.5,0,.7c-.2.4-.4,1.2-.5,1.7v.5c-.2.4-.4,1.2-.6,1.6h0c-.2.6-.5,1.3-.7,1.7h0c-.3.7-.3,1.5,0,2,.1.2.4.4.6.4.3,0,.7,0,1-.3l.2-.2,1.2-2.6c.2-.4.5-1.2.7-1.7l.9-2.5c.2-.5.4-1.3.4-1.8l.3-3.1v-1.9l-.3-3.2c0-.4.1-1,.3-1.3l1.8-2.6c.2-.3.7-.8,1.1-1l1.7-.9c.4-.2,1-.3,1.4-.3h1.3c.5.1,1.3,0,1.7-.2l.8-.3c.5-.2,1.1-.6,1.4-1.1.2-.3.2-.6,0-.9-.1-.3-.4-.6-.7-.7l-1.3-.4c-.4-.1-.9-.5-1.1-.8l-.9-1.2c-.2-.3-.4-.9-.3-1.3l.2-1.8c0-.4.3-.9.6-1.1l.5-.5c.4-.3.9-.9,1.2-1.3l.7-.9c.4-.5.4-1.4,0-2l-.2-.3h1.1c.4,0,1,0,1.2.2.5,0,1.1-.2,1.5-.7l.3-.4c.2-.2.6-.4.9-.3.4,0,1,.4,1.3.7l1.8,1.4c.4.3,1,.8,1.3,1l1.6,1.4c.4.4,1.2.6,1.8.5l2.4-.3c.3,0,.9,0,1.2.3l1.1,1c.3.3.8.8,1.1,1.2l.7,1c.3.4.6,1,.8,1.4l.3.8c.2.6.9,1.1,1.5,1l2-.2c.4,0,.9.1,1.2.3l.5.4c.4.2.9.7,1.1,1.1l.2.2c.4.4,1,.9,1.6,1l1.7.3c.4,0,.9.4,1.1.7l.3.4c.4.5,1.1.8,1.7.8h1.4c.3,0,.8.3,1,.6l1.3,1.7c.3.3.6,1,.7,1.4l.7,2.2c.2.5.5,1.2.8,1.7.4.7.7,1,.9,1.1.1.3.5,1.5.8,2.5l-1.1-.7c-.5-.3-1.3-.3-1.8,0h0c-.5.4-.9,1.2-.9,1.8v2.4c.1.6.5,1.4,1,1.8l1.2,1c.3.2.6.8.7,1.2l.7,3.4c0,.4.1,1.2.1,1.6l-.3,5v1.8l-.2,3.9c0,.4-.2,1.2-.3,1.6l-.7,1.8c-.2.4-.5,1.1-.7,1.5l-.3.5c-.2.3-.6.5-.9.5h-.1c-.6,0-1.3.4-1.6,1l-.3.6c-.2.5-.5,1.2-.6,1.8l-.3,1.5c-.1.5-.2,1.3-.3,1.8v1.2c-.2.3-.5.6-.7.7h-.3c-.6.2-1.2.8-1.3,1.5v.4c-.1.3-.4.5-.7.5h-2c-.5.1-1.3.5-1.7.9l-.8.9c-.4.4-.7,1.2-.8,1.8l-.4,3.4c0,.5-.1,1.3-.1,1.8v2c0,.6.3,1.4.8,1.8l2,1.4c.4.3,1.1.7,1.5.9l1.5.7c.5.3,1.3.1,1.8-.3l.6-.6c.4-.4.9-1,1.1-1.4l.8-1.4c.2-.4.7-.9,1-1.1l.8-.5c.5-.3,1-1,1.2-1.5l.8-1.9c.2-.4.5-1,.8-1.3h.1c.4-.5.8-1.1,1-1.6l.8-1.6c.2-.3.6-.7.9-.8l4.2-1.2c.5-.1,1.2-.7,1.5-1.2l.2-.4c.2-.3.6-.7,1-.8l.9-.2c.3,0,.9,0,1.2.2l2,1.3c.3.2.8.7,1,1.1l2.3,4.2c.2.4.4,1.1.5,1.5l1.1,7.6c0,.5.2,1.3.4,1.8l1.2,4.7c.1.5.2,1.2.3,1.7l.4,5.1c0,.5.1,1.3.2,1.8l.8,4c.1.5.4,1.3.6,1.8l1,2c.2.4.4,1.1.4,1.5s0,1.1-.2,1.6h.2Z"/>
    <path class="st1" d="M343.4,223.9c0-.5-.2-1.4-.5-1.9l-1-2c-.2-.4-.4-1.1-.5-1.6l-.8-4c0-.5-.2-1.2-.2-1.7l-.4-5.1c0-.5-.2-1.4-.3-1.9l-1.2-4.7c-.1-.5-.3-1.2-.3-1.7l-1.1-7.6c0-.5-.3-1.4-.6-1.8l-2.3-4.2c-.3-.5-.8-1.1-1.3-1.4l-2-1.3c-.5-.3-1.3-.4-1.8-.3l-.9.2c-.5.1-1.2.6-1.5,1.1l-.2.4c-.2.3-.7.7-1,.8l-4.2,1.2c-.5.2-1.2.7-1.4,1.2l-.8,1.6c-.2.4-.6,1-.9,1.3h0c-.4.5-.8,1.2-1,1.7l-.8,1.9c-.1.4-.6.9-.9,1.1l-.8.5c-.4.3-1,.9-1.3,1.4l-.8,1.4c-.2.4-.7.9-1,1.2l-.6.6c-.2.2-.7.3-.9.1l-1.5-.7c-.4-.2-1-.6-1.4-.8l-2-1.4c-.3-.2-.5-.7-.5-1v-2c0-.5,0-1.3.1-1.7l.4-3.4c0-.4.3-1,.6-1.3l.8-.9c.2-.3.8-.5,1.1-.5h2c.6-.1,1.2-.7,1.4-1.3v-.4c.1-.3.4-.6.7-.7h.3c.6-.2,1.1-.9,1.2-1.5v-1.2c.2-.5.3-1.2.4-1.7l.3-1.5c.1-.4.3-1.2.5-1.6l.3-.6c.1-.3.5-.5.8-.5h.1c.6,0,1.3-.3,1.6-.9l.3-.5c.3-.4.6-1.2.8-1.7l.7-1.8c.2-.5.4-1.3.4-1.9l.2-3.9v-1.8l.3-5c0-.5,0-1.4-.1-1.9l-.7-3.4c-.1-.6-.5-1.3-1-1.7l-1.2-1c-.3-.2-.5-.8-.5-1.1v-2.4c-.1-.3,0-.8.4-1h0c.3-.2.7-.2,1,0l1.3.7c.5.3.8,0,.9,0s.3-.4.2-1c0,0-.2-.7-.4-1.5-.4-1.4-.5-1.7-.8-1.7-.1-.1-.4-.5-.5-.8-.2-.4-.5-1.1-.7-1.5l-.7-2.2c-.2-.5-.5-1.2-.9-1.7l-1.3-1.7c-.4-.5-1.1-.9-1.6-.9h-1.4c-.3,0-.9-.3-1.1-.6l-.3-.4c-.4-.4-1.1-.9-1.6-1l-1.7-.3c-.4,0-.9-.4-1.1-.7l-.2-.2c-.3-.4-.9-1-1.3-1.2l-.5-.4c-.5-.3-1.2-.5-1.8-.5l-1.9.2c-.3,0-.6-.2-.7-.5l-.3-.8c-.2-.5-.6-1.2-.9-1.6l-.7-1c-.3-.4-.8-1-1.2-1.4l-1.1-.9c-.4-.4-1.2-.6-1.8-.5l-2.4.3c-.3,0-.9,0-1.2-.4l-1.6-1.4c-.4-.3-1-.8-1.3-1.1l-1.8-1.4c-.4-.3-1.1-.7-1.6-.8-.6-.2-1.3,0-1.7.6l-.3.4c-.3.3-.6.4-.7.4-.3,0-.9,0-1.4-.2h-1.1c-.4,0-.7,0-.8.4-.1.3-.1.6.1,1l.2.3c.1.2.1.7,0,.9l-.7.9c-.3.4-.8.9-1.1,1.2l-.6.5c-.4.4-.8,1.1-.9,1.8l-.2,1.8c0,.6.1,1.4.5,1.9l.9,1.2c.3.5,1,.9,1.5,1.1l1.3.4c.1,0,.2.1.2.1h0c-.1.2-.6.6-.9.7l-.8.3c-.4.1-1,.2-1.5.2h-1.3c-.5-.1-1.3,0-1.8.3l-1.8.9c-.5.2-1.1.8-1.4,1.2l-1.8,2.6c-.3.5-.5,1.3-.5,1.9l.3,3.2v1.7l-.4,3.1c0,.5-.2,1.2-.4,1.6l-.9,2.5c-.2.4-.5,1.2-.6,1.6-.4.8-1,2.1-1.1,2.4h-.1c-.1.1-.2.1-.3.1h0c0-.1-.1-.6,0-.9h0c.2-.6.6-1.3.8-1.8h0c.2-.6.5-1.4.5-1.9v-.5c.2-.5.4-1.2.5-1.5.2-.6.1-1.3-.2-1.7-.2-.2-.4-.3-.6-.3-.3,0-.6.2-.8.5-.3.4-.6,1.2-.7,1.7-.1.6-.2,1.2-.3,1.4,0,.1,0,.4-.2,1.1,0,.6-.1.9-.1,1,0,.2-.5,1.2-.6,1.5-.1,0-.3.2-.5.3h-.1v-3.2c.1-.4.3-1,.5-1.2.3-.4.5-1.2.4-1.8v-1.3c0-.4,0-1.1.2-1.4l.3-.6c.3-.6.3-1.4,0-2v-.2c-.2-.4-.4-1-.3-1.2,0-.1.2-.6.5-.8l.5-.4c.4-.4.8-1,.7-1.5,0-.2-.1-.4-.3-.6-.3-.2-.6-.2-1,0l-.6.3c-.5.2-1.1.8-1.3,1.4l-.8,1.8c-.2.4-.6,1-.9,1.3l-.6.6c-.4.4-.8,1.1-1,1.7l-.4,1.5c-.1.4-.5.9-.8,1.1h-.2c-.2.3-.5.2-.5.2-.2-.4-.9-.8-1.4-.8s-1.2.4-1.4,1.1l-.2.6c0,.3-.3.4-.4.4-.3,0-.8-.2-1-.3-.2,0-.4,0-.6.1-.3.2-.4.6-.5,1v.6c-.1.5-.2,1.2-.4,1.7l-.6,2.9c0,.3-.4.6-.7.7l-1.8.4c-.6.1-1.2.7-1.3,1.4h0c-.1.7-.1,1.5,0,2.1l.4,1.6c.1.4.1,1.1.1,1.6l-.2,1.8c0,.5-.2,1.3-.3,1.8l-.7,3.7c0,.4-.3,1.2-.5,1.6l-2.6,5.3c-.2.4-.6,1.1-.9,1.4l-1.7,2.4c-.4.5-.5,1.4-.3,2l.6,2.2c.1.4.3,1.2.3,1.6l.3,3.9c0,.4-.1,1.1-.3,1.4l-1.3,2.6c-.2.5-.5,1.3-.5,1.9,0,1.1-.2,2.7-.3,3-.1.4.2,1.2.8,2.5.2.4.5,1.1.6,1.6l1.7,6.3c.1.5.3,1.2.5,1.7l4,14.6c.1.4.2,1.1.1,1.6l-1.3,13c0,.5-.2,1.2-.4,1.6l-2.7,8c-.1.4-.5,1.1-.7,1.5l-2.6,3.8c-.3.4-.7,1.1-.9,1.6l-2.8,6c-.2.4-.6,1-.9,1.3l-4.7,4.8h0v.2h0l52.2,1.2v1.9c.1.2.3.4.5.4h0l35.9-1.7h.1v-2.6c0-.4.2-.9.5-1.1l.4-.4c.4-.4.9-1,1.1-1.5.1-.4.5-.9.8-1.2l.6-.5c.3-.3.9-.8,1.2-1.2l.8-.8c.4-.4.8-1.2.8-1.8v-.2c0-.4.2-1,.5-1.2h.1c.4-.5.8-1.3.9-1.8s.2-1.4.1-2l-.2-1.1c0-.4,0-1.1.1-1.5l.8-2.2c.1-.3.5-.8.8-.9l.8-.4c.5-.2,1.1-.6,1.5-.9l.5-.3c.4-.3.9-1,1.2-1.5l.5-1.3c.2-.5.4-1.4.4-1.9v-1.6c0-.4.2-.9.5-1.1l.6-.5c.5-.4.8-1.2.5-1.9-.1-.4-.1-1,0-1.4h0c.1-.4.5-.9.8-1h.3c.4-.3,1-.5,1.4-.6h0c.3,0,.6.2.7.4.1.3,0,.7,0,.9-.3.4-.6,1.1-.7,1.7h0c-.1.7-.1,1.5,0,2,0,.3.2.6.5.7.3.2.6.2,1,0l.4-.2c.5-.2,1.1-.7,1.4-1.2l.7-.9c.3-.4.7-1.2.8-1.7l.5-1.8c.1-.5.3-1.3.3-1.9l.2-2.2c0-.5.1-1.3.2-1.8l.2-1.7c0-.5.2-1.2.3-1.7l.4-1.5c.1-.5.2-1.3.2-1.9h0l.9,1.1Z"/>
  </g>
  <g id="BY_TG">
    <path class="st7" d="M359.2,323.3l-3.5.5-1.3-2c-.4-.2-3.7.2-4,.4-.6.5-.3,2.1-1.1,2.3s-5.7.9-6.5.9c-2.2-.1-2-3.3-4.3-2.4l.2,2.8-3.6.5-1.3-11.6.4-.4c2.3,0,4.4-.8,6.7-.5,3.7.5,5,5.1,2.3,7.7l2.5,2.8,3.7-11.5c.6-.8,2.2-.4,3.1-.7l6.7,11.2h0ZM358.2,322.8l-5.6-9.7c-.4-.5-2.1-.1-2.5.1-.5.3-2.9,9.5-3.1,10.9l2.3-.3.6-2.2c2.4-.3,5.4-1.9,6.1,1.4l2.3-.2h0ZM337.7,322.2c.6.2,1.9-.3,2.4-.1.8.3,1.5,2.2,2.3,2.4.4.1,2.4.2,2.4-.3l-2.3-2.7c1.3-1.7,2.1-2.9,1.2-5.1-1.5-3.3-6.6-1.6-9.3-1.3l1.3,10.5,2.4-.3-.3-3.1h-.1Z"/>
    <path class="st7" d="M302,318.6l.3,3.4-5.4.5c-.8,2.2,4.6,0,5.1.5l.3,3.1-5,.7.3,1.2,5.8-.8v3.2c.1,0-9.2,1.3-9.2,1.3l-1.2-11.8,9.1-1.3h0ZM301.5,319.4l-7.8,1.1,1.3,10.3,7.9-1v-1.8l-6,.5v-2.3l4.7-.6-.4-1.9-4.4.5-.7-2.3,5.5-.8v-1.8h-.1Z"/>
    <path class="st7" d="M331.7,314.9l.3,3.1c-1.6.3-3.2.3-4.8.6-1.1.2-1.1,1.1,0,1.1s2.9-.4,4.3-.6l.4,3.2-4.7.8v1.1c-.1,0,5.9-.5,5.9-.5l.3,3.1-9.4,1-1.6-11.8,9.4-1h0ZM331.1,317.5c0-.8.3-1.7-.7-1.8-1.8-.4-5.4,1-7.5.8l1.3,10.5,8-1v-1.9c-.1,0-5.9.8-5.9.8l-.3-2.6c1.5,0,3.2-.2,4.6-.5.3,0,.5.2.4-.4,0-.5-.3-1-.2-1.5l-5,.5-.3-2.4,5.5-.5h.1Z"/>
    <path class="st7" d="M320.9,321.4c-.3,2.4,1.7,4.6-.7,6.2-5.1,3.4-11.6.1-10.6-6.4.6-4.1,7-6,10.2-3.7,1.8,1.4-.4,2.1-1.2,3.5-2-2-5.7-1.3-5.4,2,.2,1.9,2.6,3.3,4.2,2.1.5-.4-.3-2.6-.2-3.3l3.6-.5h.1ZM319.9,318.3c-3.3-2.1-8.6-1-9.5,3.2-.9,4,2.3,7.2,6.2,6.8.9,0,3.4-.9,3.8-1.7.4-.6,0-4-.3-4.2s-1.7-.2-2,.1v3c-3,2.3-6.9-1-5.1-4.5,1-2.1,4.1-2,5.8-.9l1-1.8h.1Z"/>
    <path class="st7" d="M391.9,306.8c1.5-.2,3.4-.2,4.7.7l-.8,3.1c-1-.5-2.6-1-3.7-.5s-.8.9.2,1c2.1.3,5.2.2,5.6,3,.7,4.9-6.1,5.7-9.4,4.2-.8-.4.3-3.5.7-3.5,1.5,1,3.5,1.5,5.1.4-1.8-1.2-4.7-.2-6.1-2.2-2.1-3,.7-5.8,3.7-6.2h0ZM395.9,307.8c-2.5-1-7.5-.5-7.6,3-.1,4.2,5.8,2.4,6.5,3.8v1.3c-1.6.9-3.6.7-5.4,0-.6,1.7-.3,2.2,1.4,2.4,3,.3,7.2-.3,6.4-4.3-.6-2.9-8.3-1.2-6.3-4,.8-1.1,3.5-.6,4.7-.4l.3-1.8h0Z"/>
    <path class="st7" d="M370.5,321.7l-1.6-11.8c4.1-.3,10.3-2.3,12.3,2.8,2.8,7.2-5.2,9.2-10.7,9h0ZM371,320.9c4.4-.1,10.8-.6,9.9-6.7-.8-5.7-7.3-4.3-11.3-3.8l1.3,10.5h.1Z"/>
    <path class="st7" d="M362.3,311l1.1,8.4,5.5-.5.2,3.1c-2.4.3-5.1.9-7.5,1.1-.4,0-1.3.1-1.6-.2l-1.4-11.6,3.6-.2h0ZM361.8,311.5l-2.4.3,1.3,10.5,7.6-.8c.7-3.3-3.6-1.2-5.5-1.3l-1-8.7h0Z"/>
    <path class="st7" d="M292.6,328.5l.3,3.4-8.9,1-1.6-11.8c.7,0,3.5-.8,3.8-.3l1.2,8.3,5.2-.7h0ZM285.5,321.5l-2.3.2,1.3,10.5,7.6-1.1v-1.8l-5.5.5-1.1-8.4h0Z"/>
    <path class="st7" d="M385.4,313.5l-2.8.3c0-.8.4-1.4.3-2.2s-.6-1-.8-1.6c-.4-1.9,1.2-3.3,3-2.5,2.1.9.6,4.4.3,6h0ZM383.3,313.1l1.5-.3c.3-1.1,1.4-3.5.5-4.5-1.3-1.1-3,0-2.4,1.6.1.4.6.5.7,1.1.1.7-.1,1.3-.3,2h0Z"/>
    <path class="st10" d="M337.7,322.2l.3,3.1-2.4.3-1.3-10.5c2.7-.3,7.9-2,9.3,1.3,1,2.2.2,3.4-1.2,5.1l2.3,2.7c0,.5-2,.5-2.4.3-.7-.2-1.5-2.1-2.3-2.4-.5-.2-1.7.4-2.4.1h.1ZM337.5,320.4c6,.4,5.3-5.4-.5-3.7l.5,3.7Z"/>
    <path class="st10" d="M358.2,322.8l-2.3.2c-.7-3.3-3.6-1.8-6.1-1.4l-.6,2.2-2.3.3c.2-1.4,2.7-10.5,3.1-10.9.4-.3,2.1-.6,2.5-.1l5.6,9.7h0ZM350.3,319.6c.6-.1,3-.1,3.1-.7l-2-3.5-1.2,4.2h.1Z"/>
    <polygon class="st10" points="301.5 319.4 301.5 321.2 296 322 296.7 324.3 301.1 323.8 301.5 325.6 296.8 326.2 296.8 328.5 302.8 328 302.8 329.8 294.9 330.8 293.7 320.4 301.5 319.4"/>
    <path class="st10" d="M331.1,317.5l-5.5.5.3,2.4,5-.5c0,.5.2,1,.2,1.5s0,.3-.4.4c-1.4.3-3.1.5-4.6.5l.3,2.6,5.8-.8v1.9c.1,0-7.9,1-7.9,1l-1.3-10.5c2,.2,5.6-1.1,7.5-.8,1,.2.6,1.1.7,1.8h-.1Z"/>
    <path class="st10" d="M319.9,318.3l-1,1.8c-1.7-1.2-4.8-1.2-5.8.9-1.7,3.5,2.2,6.8,5.3,4.5v-3c.1-.4,1.6-.4,1.9-.1s.6,3.6.3,4.2c-.5.8-2.9,1.6-3.8,1.7-4,.4-7.1-2.8-6.2-6.8.9-4.2,6.2-5.3,9.5-3.2h-.2Z"/>
    <path class="st10" d="M395.9,307.8l-.3,1.8c-1.2-.2-3.9-.8-4.7.4-2,2.7,5.7,1,6.3,4,.8,4-3.4,4.6-6.4,4.3-1.8-.2-2-.7-1.4-2.4,1.8.6,3.7.9,5.5,0v-1.3c-.8-1.4-6.7.4-6.5-3.8.1-3.5,5.1-4,7.6-3h-.1Z"/>
    <path class="st10" d="M371,320.9l-1.3-10.5c4-.5,10.5-1.8,11.3,3.8.8,6-5.5,6.5-9.9,6.7h-.1ZM373.1,318.8c2.6-.1,5.9-.6,5.5-4s-3.7-3.4-6.2-2.5l.7,6.6h0Z"/>
    <path class="st10" d="M361.8,311.5l1,8.7c1.9.1,6.2-2,5.5,1.3l-7.6.8-1.3-10.5,2.4-.3h0Z"/>
    <polygon class="st10" points="285.5 321.5 286.6 329.8 292.1 329.3 292 331.1 284.5 332.2 283.1 321.7 285.5 321.5"/>
    <path class="st10" d="M383.3,313.1c.1-.6.4-1.3.3-2-.1-.6-.6-.7-.7-1.1-.5-1.6,1.1-2.7,2.4-1.6.8,1-.2,3.3-.5,4.5l-1.5.3h0Z"/>
    <path class="st7" d="M337.5,320.4l-.5-3.7c5.8-1.8,6.5,4.1.5,3.7ZM338,319.9c4.2,0,3.9-3.7-.3-2.6l.3,2.6Z"/>
    <path class="st7" d="M350.3,319.6l1.2-4.2,2,3.5c-.1.5-2.6.5-3.1.7h-.1ZM352.7,318.8l-.9-1.8-.6,1.8h1.6-.1Z"/>
    <path class="st7" d="M373.1,318.8l-.7-6.6c2.5-.9,5.8-.7,6.2,2.5s-2.9,3.9-5.5,4h0ZM373.6,318c6.2.7,5.4-7.2-.5-5.2l.5,5.2Z"/>
    <path class="st7" d="M276.8,322c2.3.1,3.9,1.3,3.7,3.8,0,.5-.5,1.2-.5,1.3,0,.2,1.1,1.1,1.4,1.7.3.7.5,1.9.1,2.6-.2.5-1.8,1.9-2.4,2.1-.7.2-2.3.4-3.1.5-1.6.3-3.4.3-5,.5l-1.3-11.8h.8c.7-.2,1.6-.4,2.4-.5,1.1-.1,2.8-.3,3.9-.3h0ZM278.9,327.5c.2-.9,1.1-1.2,1-2.4-.3-3.9-6.9-1.7-9.4-1.8l1.3,10.5c2.4-.4,8.5,0,9.1-3,.3-1.5-.5-3-2-3.2h0Z"/>
    <path class="st10" d="M278.9,327.5c1.6.2,2.3,1.7,2,3.2-.6,3-6.7,2.6-9.1,3l-1.3-10.5c2.5,0,9.1-2.1,9.4,1.8.1,1.2-.8,1.5-1,2.4h0ZM275.7,324.4c-.4,0-2.3.2-2.5.4v2.5c1.3-.2,4.1,0,4.3-1.6.1-1-1-1.3-1.8-1.3h0ZM274,331.6c1.2.1,6-.2,4.4-2.4-.6-.9-3.6-.2-4.7-.1l.3,2.6h0Z"/>
    <path class="st7" d="M237,327c-.1.8.7,2.8,0,3.3l-5.3.8.4.9,4.8-.5.3,3.1-5,.7.3,1.2,5.8-.8.2,3.1-9.2,1.2-1.6-12,9.2-1h.1ZM236.5,327.7l-7.8,1.1,1.3,10.4,7.9-1v-1.8l-6,.5v-2.3l4.7-.6-.3-1.8-5,.5-.3-2.4,5.4-.8v-1.9h.1Z"/>
    <path class="st7" d="M251.4,337.2l-3.8.5c-1.3-1-1.7-3-3.8-2.6.2.6.6,2.6,0,3l-3.4.4-1.3-11.8c2.2-.2,5-1.1,7.1-.8,3.5.5,5.2,4.8,2.6,7.5v.4l2.6,3.3h0ZM250.1,336.7l-2.3-3.1c1.2-1.6,1.9-2.1,1.4-4.3-.9-4-6.5-2.2-9.3-2.1l1.3,10.4,2.1-.2-.2-2.9c1,0,1.8-.6,2.8,0,.6.4,1.3,2.1,2.1,2.3.6.2,1.5-.4,2.2-.2h-.1Z"/>
    <path class="st7" d="M263.7,335.6l-3.8.5c-1.4-.9-1.8-3.3-3.8-2.6-.2.2.8,2.5,0,3l-3.4.4-1.3-11.8c.2-.2,5.7-.9,6.4-.8,4.1.2,6.1,4.8,3,7.8l2.9,3.5h0ZM262.4,335.1l-2.3-2.8c.4-1.4,1.5-1.5,1.6-3.4.1-5.1-6.3-3.6-9.5-3.3l1.3,10.4,2.1-.2-.2-2.9c.9,0,1.8-.5,2.6-.1.5.2,1.5,2.2,2.3,2.5.6.2,1.5-.4,2.2-.2h-.1Z"/>
    <path class="st7" d="M211,330.4c.2.2-.6,1.9-.7,2.3-.5,1.2-2.5,4.9-2.6,5.8,0,.7.7,4,.5,4.3l-3.7.5c-.2-1.3-.2-3.2-.7-4.4s-5.2-6-5.1-6.7c.5-.4,3.2-.8,3.8-.6s2.7,3.6,2.9,3.6l2-4.4,3.6-.3h0ZM210,331.2c-3.3-.4-2.7,3.1-4.3,5-.8.2-2.7-3.4-3.3-3.8-.7-.5-1.8.2-2.6.1l4.8,6.1.5,3.9,2.4-.3c.1-1.5-.5-2.8-.2-4.3s2-4.2,2.6-5.8c.1-.3.3-.6.2-1h0Z"/>
    <path class="st7" d="M226.5,328.3l.3,3.4-3.1.3,1,8.6-3.5.5c-.3-.1-.4-.3-.4-.6-.4-2.5-.4-5.2-.9-7.8-.3-.5-2.6.2-3.3.2l-.5-3.3,10.5-1.3h-.1ZM226,329.1c-2.7.6-5.8.5-8.5,1-1.2.2-.4,1.3-.4,2.1l3.4-.5,1,8.7,2.4-.3-1.1-8.5,2.9-.5.2-2h.1Z"/>
    <path class="st7" d="M189,345.1l-1.3-11.8c3.4-.2,11.4-2.8,10.7,3.3,0,.4-.5,1-.5,1.1,0,.2,2.1,1.1,1.8,3.6-.6,3.9-7.7,3.4-10.7,3.9h0ZM189.8,344.2c.3.2,5.3-.5,6-.6,3.7-.8,4.4-3.9,1-5.8,1-1.1,1.4-2.1.5-3.4-1.7-2.5-6.4-.4-8.9-.7l1.4,10.5h0Z"/>
    <path class="st7" d="M265.1,335.3l-1.6-11.8c1,.1,3.7-1.2,3.9.1.6,3.5.6,7.2,1.3,10.7-.1,1-2.8.7-3.7.9h.1ZM266.6,323.8l-2.4.3,1.3,10.5,2.4-.4-1.3-10.3h0Z"/>
    <path class="st7" d="M274,331.6l-.3-2.6c1.1-.1,4-.8,4.7.1,1.6,2.2-3.2,2.6-4.4,2.4h0ZM276.8,329.3c-.9,0-1.7.3-2.6.3l.3,1.6c1.2-.3,1.8-.1,2.9-.8.3-.2.7.3.5-1h-1.1,0Z"/>
    <path class="st7" d="M275.7,324.4c.8,0,1.9.3,1.8,1.3-.1,1.6-3,1.4-4.1,1.6v-2.5c0-.2,2-.4,2.3-.4h0ZM274.8,325.1c-.8,0-1.3.2-1,1.1s1,.2,1.3.2c1.1-.1,2.1.2,1.8-1.3h-2.1,0Z"/>
    <polygon class="st10" points="236.5 327.7 236.3 329.6 230.9 330.4 231.2 332.7 236.2 332.2 236.5 334 231.8 334.6 231.7 336.9 237.8 336.4 237.8 338.2 229.9 339.2 228.6 328.8 236.5 327.7"/>
    <path class="st10" d="M250.1,336.7c-.7-.2-1.6.4-2.2.2-.8-.2-1.6-2-2.1-2.3-.9-.6-1.8,0-2.8,0l.2,2.9-2.1.2-1.3-10.4c2.8-.1,8.4-1.9,9.3,2.1.5,2.2-.2,2.7-1.4,4.3l2.3,3.1h.1ZM242.8,332.7c1.5-.4,3.9,0,4.2-2,.4-2.7-2.8-2.2-4.5-1.9l.3,3.9h0Z"/>
    <path class="st10" d="M262.4,335.1c-.7-.2-1.6.4-2.2.2-.8-.2-1.8-2.2-2.3-2.5-.8-.4-1.8,0-2.6.1l.2,2.9-2.1.2-1.3-10.4c3.1-.6,9.3-2.2,9.5,3.3,0,1.9-1.2,1.9-1.6,3.4l2.3,2.8h.1ZM255.1,331.2c1.5-.3,4.2,0,4.2-2.2s-2.9-1.9-4.5-1.7l.3,3.9h0Z"/>
    <path class="st10" d="M210,331.2c0,.4,0,.6-.2,1-.6,1.6-2.3,4.3-2.6,5.8s.3,2.8.2,4.3l-2.4.3-.5-3.9-4.8-6.1c.8,0,1.9-.6,2.6-.1.6.4,2.5,4,3.3,3.8,1.6-1.9,1.1-5.3,4.3-5h0Z"/>
    <path class="st10" d="M226,329.1l-.2,2-2.9.5,1.1,8.5-2.4.3-1-8.7-3.4.5c0-.8-.8-1.9.4-2.1,2.7-.5,5.8-.5,8.5-1h-.1Z"/>
    <path class="st10" d="M189.8,344.2l-1.4-10.5c2.5.3,7.3-1.8,8.9.7.9,1.3.5,2.3-.5,3.4,3.4,1.9,2.7,5-1,5.8-.7.1-5.8.8-6,.6h0ZM195.2,337.1c.5-.5.3-1.8-.4-2-.5-.2-3.5,0-3.7.2l.2,2.6c1-.3,3.2-.1,3.9-.9h0ZM191.9,342.4c1-.4,4.3-.2,4.7-1.5.2-2.9-3.2-1.2-5-1.4l.3,2.9h0Z"/>
    <polygon class="st10" points="266.6 323.8 267.9 334.1 265.6 334.6 264.3 324.1 266.6 323.8"/>
    <path class="st7" d="M242.8,332.7l-.3-3.9c1.7-.2,4.8-.7,4.5,1.9-.3,2-2.7,1.6-4.2,2h0ZM243.3,331.9c.9,0,3.1-.2,3.1-1.4-.2-1.8-2.1-1.1-3.4-1.2l.3,2.6h0Z"/>
    <path class="st7" d="M255.1,331.2l-.3-3.9c1.6-.2,4.5-.8,4.5,1.7s-2.7,1.9-4.2,2.2h0ZM255.6,330.4c1.7-.1,3.5-.2,2.8-2.4,0,0-1.3-.4-3-.2l.3,2.6h0Z"/>
    <path class="st7" d="M191.9,342.4l-.3-2.9c1.7.1,5.1-1.5,5,1.4-.4,1.3-3.6,1.1-4.7,1.5h0ZM195.8,341.1c.3-2.3-2.4-.8-3.6-1l.3,1.6,3.4-.5h0Z"/>
    <path class="st7" d="M195.2,337.1c-.7.8-2.9.5-3.9.9l-.2-2.6c.2-.3,3.2-.4,3.7-.2.7.2.9,1.5.4,2h0ZM191.9,337.2c.3.2,3.2,0,2.9-1.1-.3-.9-2.5-.1-3.1-.1,0,0,.2,1.2.3,1.3h0Z"/>
  </g>
  <g id="name">
    <path class="st10" d="M259.7,239.4c-2-1.5-2.3,2.3-2.9,3.6-3.6,8.2-14.8,9.9-16.5-.4-2.4,4.5-5.6,9.3-10.8,10.6s-8.4-1-10.1-5.9c-2.1,4.2-5.5,9-10.7,9s-6.1-4.5-7-8.5c-3.8,7-10,12.1-18.1,13.3-20.2,2.9-24.5-20.2-19.5-35.2,3.9-11.7,14.6-21.6,27.6-20.4,15,1.4,10.1,22.8-.6,25-6.1,1.2-2.5-4.6-2.4-7.6.3-7.7-8-4.8-11.2-.8-6.2,7.7-3.3,20.9,7.7,21.8,4.8.4,14.8-1.4,16.7-6.5.9-2.6,1.2-6.8,2-9.7s3.3-9.9,7.5-8.2c3.4,1.4.1,11.5,0,14.4-.1,3.5,1.8,6.5,5.5,4.5,4.1-2.2,3.8-10.9,5.2-14.9-1.8-.1-3.9-1.2-4.2-3.1-.4-2.9,1.9-2.1,3.7-3.3,1.1-.7,2.6-2.5,3.1-3.7,1.2-2.8,1.2-8,5.8-7.5,4.2.5,1,6.8.9,8.8,0,2.7,3.9.4,5.5.9,1,1.3,1,4.2.1,5.6-1.2,2.1-5.5,1.1-7.7,2.8-1.7,1.4-2,6.1-1.6,8.2,1.1,6.5,10.7,4.5,12.4-.6,1.5-4.7,1.5-13.4,5.9-16.9,2-1.6,4.2-1.8,4.9,1.1,1.2,4.9-2.6,11.3-.7,16.1,1.2,3,5.7,1,7.1-1.1,2.7-4.1,2.2-18.6,8.4-19.8,4.2-.8,4.3,2.5,4,5.8-.4,4.2-3.2,10.3-2.5,14.3.4,2.6,2.5,3,4.5,1.5,1.8-1.4,4.1-6.5,4.5-6.8.9-.6,3-.3,3.2.9s-2.4,9.3-3.1,11c-1.8,4.8-5.4,12-11.6,8.9-1,8-3.4,19.7-12.3,22.3-8.3,2.4-15.5-1.4-15.9-10.4-.1-2.2.7-6.4,2.5-7.9s1.5,0,2.2,1.1c3.9,6.3,12.2,3.3,15.7-1.9.9-1.3,2.7-5.1,2.7-6.5v-3.9h.1Z"/>
    <path class="st10" d="M187.3,266c13-.2,21.8,6.7,20.7,20.4-.8,9.7-10.3,18.4-20.2,17.1-1.5-.2-3.2-1.6-4.7-.8-1.2.7-1.7,4.3-2.1,5.7-2.4,7.3-6.6,15.5-14.5,18.1-11.1,3.7-19.3-5.5-15.9-16.1.9-2.8,4.1-7,7.5-6.7,1.2.1.9,1.1,1.4,2,2.1,4.1,7.2,3.8,10.5,1.3,7.4-5.8,6.8-15.6,9.3-23.6,1-3,3-4.2,6.2-3.7s.6,7.5.4,9.8c-.3,3.9.4,5.4,4.7,4.1,5.9-1.8,7.7-9.9,4.3-14.7-5.4-7.5-31-.7-26.2,10.3,1,2.2,3,1.2,3.3,2.7,1.8,8-11.8,14.5-17.3,5.8-3.8-6.1-1.5-14.4,2.9-19.6,7-8.2,19.3-12,29.9-12.2h-.2Z"/>
    <path class="st10" d="M143.2,188.9c6.2-.6,5.8-6.6,6.9-11.2.5-2.2,2.3-10,4.5-10.6,4-1.2,2.5,4.8,5.1,4.6,1.2,0,3.9-3.8,5.1-4.8,3.8-2.9,8.8-3.6,11.8.7.4.6.2,1.4,1.1,1.2.6-.1,3.3-3.7,4.3-4.6,3.9-3.2,11.6-4.2,13.6,1.5,1.6,4.6-1.6,8.7-.2,12.7,1,2.7,3.9,2.8,6,1.3,2.7-2.1,2.5-5.9,3.4-8.8,1.8-6.1,6.5-11.8,12.9-13.4,17.4-4.4,16.9,20.3.6,20.5-.9,0-4.4-1.1-4.6-.4-.6,2.6,2.9,3.6,4.8,3.8,6.5.4,13-3.8,15.9-9.4,2.8-8.4,3-26.3,8.5-33,1.6-2,5.9-3.7,6.5-.2.8,4.6-3.5,12.2-3.4,17.2,1.7,1.4,3.2-1.8,4.7-2.8,2.3-1.5,6.1-1.8,8.5-.1,4.7,3.4,4.3,12.7,3.8,17.8.9-.5,2.1-.9,2.9-1.7,2-1.9,2.2-6.3,3.2-9.1,2.5-6.9,8.2-13.3,16.2-12.5,1.7.2,3.7,1.9,4.6,1.8,1.7-.2,3.1-2.7,4.7-3.4,1.5-.6,3.6-.6,4,1.3,1,4.5-4.9,14.3-1.9,17.6,1.2,1.3,3.6.8,4.9,0,2.8-1.7,2-4,2.6-6.8,1.8-8.9,9.6-18.1,19.6-15.8s7.9,18.2-1.2,17.1c-4.2-.5-1.2-3.2-1.2-5.1,0-4.7-6.4-3.7-7.5,1.4-1.6,7.5,4.6,11.4,11.4,9.3,11.8-3.6,10.9-17.1,13.1-27.1.9-4,3-15.2,7.7-16.1,2.8-.5,3.9.8,3.7,3.5-.2,4.9-3.6,12.6-4.6,18.1-.3,1.7-1.8,7.1,1,7.1s3.2-4.7,4.1-6.9c2.1-4.7,5.2-8.1,10.8-7.5,4.6.5,5.9,6.8,3.5,10.1-2.6,3.5-7.4,2.5-9,4.3-1.5,1.7-.9,4.3,1.1,5.2,3.4,1.5,10.8-.2,13.3-3.1,1.4-1.7,2.5-5.3,4.6-.9-2.1,6.9-5,17.4-12.3,20.4-5.7,2.4-8.4-.1-10.8-5.2-.9-2-2.1-7.1-3.1-8.4-1.2-1.5-3.4-.7-3.6,1.3-.6,4.7,4,13.7-2.8,15.7-5.8,1.7-7.5-3.7-8-8.3-4.2,7.3-13,14.5-21.9,11.4-3.9-1.3-4.7-3.6-6.6-6.7-.2-.2,0-.5-.6-.3-1.8,5.4-5.3,11.7-11.9,11-4.2-.5-5.4-6-5.7-9.4-2.1,5.5-5.8,12.9-12.8,12.3-4.8-.4-6.6-6.2-7.3-10.2-1,1-1.8,2-3,2.7s-3.6,1.4-4.3,2-1.7,2.8-2.5,3.8c-1.5,1.9-4.1,4.2-6.4,5.1-7.1,3.1-14.6-.7-16.4-8.1l-2.9,4.5c-5.1,8-18.1,13.6-25,4.7-1-1.2-1.4-2.6-2.1-3.9-.1-.2,0-.8-.5-.4s-1.2,3.2-1.5,3.8c-2.4,4.5-6.7,9.6-12.4,8.6-3.9-.7-5.2-6.1-5.2-9.5s1.1-5.9,1.3-8.6c.5-8-6.6-4.2-8.5.9-2.5,6.8,1.2,9.4.6,14.7-.6,5.9-9.4,7.7-11.6,2.2-2.1-5,.5-9.8.9-14.5.1-1.9.2-4.6-2.2-4.8-4.6-.5-6.9,5.9-7.2,9.5-.4,4.9,3.7,13.8-3.1,15.7-6.7,1.8-7.6-4.5-7.6-9.5-1.2,1-2.4,1.9-3.8,2.6-1.1.5-3.4.8-4,1.2-.5.3-2.2,3.3-2.9,4.1-5.3,6.2-14.6,9-20.5,1.9l-2.5-4.7c-3.4,7.5-10,13-18.2,14.3-21.9,3.4-25.3-23.4-18.4-38.5,4.8-10.5,17.7-20.9,29.8-16.1,11.3,4.4,4.6,23.3-4.8,24.1-5.2.5-1.8-5-1.7-8,.2-6.9-7.4-4.8-10.6-1.4-5.2,5.5-5.5,16.8,1.5,20.9,5.2,3.1,14.2,2,19.1-1.4,4.2-2.9,3.6-6.8,5.6-11.1,3.2-7.1,11.9-14.7,20.1-10.9,3.4,1.5,6.3,7.2,6.3,10.7v6.9h.6ZM282.9,158.1c-6.9.8-7.3,13.4.1,10.8,5.1-1.8,5.9-11.5-.1-10.8ZM248.9,163.3c-4.7,1-6.1,10.2-1.3,10.9,7.2,1,9.8-12.6,1.3-10.9ZM218.4,165.1c-5,.7-5.9,7.9,0,7.2,4.8-.5,5.2-8,0-7.2ZM133.5,182.4c-3.2-3.3-8.2.6-8.5,4.7-.7,8.5,8.7,5.8,9.4-.2.1-1.3.1-3.5-.9-4.5h0Z"/>
    <path class="st10" d="M321.8,263.9c.3.2.7,1.3.8,1.7.8,4.4-4.6,12.7-2.2,16.6,1.6,2.6,5.4.7,6.9-1.1.7-.9,1.2-3,2.4-3.1.9,0,2.4.9,2.4,1.9-2.1,6-4.4,17.5-10.9,20.1-5.9,2.3-8.8-1.8-9.6-7.1-.1-.7.3-2.1-.5-1.9-1.2,5.1-5.3,12.1-11.1,12.5-4.9.4-7.5-4.4-8.3-8.6-3.1,6.2-8.8,12.7-16.5,12-3.4-.3-4.3-3.5-8.2-2-2.3.9-2.4,3.9-4.1,4.3-3.2.7-2.4-5.7-1.8-7.5,2-6.2,8.7-10.8,12.9-15.3,6.4-6.8-2.1-6.6-6.4-3.3-4.3,3.4-5.1,8.6-7.1,13.3-2.9,7.2-8.7,16.3-17.8,15.4-3.1-.3-3.8-2.8-7.3-2.3s-3.3,5-6,4.7c-.9-.1-1.3-1.7-1.4-2.5-1.2-9.2,9.1-15.2,14.1-21.1,3.4-4,1.1-5.6-3.4-4.4-12.2,3.2-8.8,25.2-20.4,29.5-7.7,2.8-9.9-4.6-10.2-10.7-.3-5.5,1.9-20.1,5.6-24.2,1.5-1.6,4.3-2.6,5.4-.1,2,4.6-2.2,11.2-.6,16,1,3.1,4.5,2.5,6.4.5,2-2.2,3.6-8.3,4.1-11.3.5-2.6.4-5.8.9-8.2.4-1.9,2.4-2.6,3.9-1.4.4.3.7,1,1,1.2,1.6,1,3.6-.9,5-1.5,4.4-1.6,8.5-.2,12.7-1.4,1.3-.4,4.3-2.6,4.3.1,0,4.1-2.2,8.8-4.8,11.9-1.4,1.6-8,7.2-8.4,8.3-1.1,3.3,5.5,2,7.2,1.5,9.3-2.8,10.4-12.7,11.4-21,.2-1.7-.3-4.6,2.3-4.8,2.2-.2,2,1.5,3,1.9,1.6.7,2.9-.8,4.2-1.3,4.7-2,9.4-.3,13.6-1.8,1.1-.4,2-1.2,3.1-1.2,1.4.4.5,4.4.2,5.6-.8,3-2.8,6.2-4.8,8.5-1.4,1.6-7.5,6.5-7.9,7.8-.9,2.8,5.5,1.8,6.9,1.4,2.9-.8,7.4-3.7,8.5-6.7,1.3-3.6,1.2-6.7,3.3-10.5,2.9-5.2,9.5-10.5,15.8-8.7,2.1.6,2.7,2.5,5.1.9,1.1-.7,1.5-2,2.9-2.6.9-.4,2.8-.7,3.6,0h-.2ZM309.5,277.2c-1.3-1.3-3.7-1.1-5.2-.3-4.4,2.2-5,11.5,1.5,10.3,3.8-.7,6.5-7.2,3.8-10h0Z"/>
    <path class="st10" d="M217.8,263.9c5.1-.6,8,2.5,6.6,7.6-1.4,4.9-11,6.5-12.8,1.4s1.3-8.4,6.3-9h-.1Z"/>
    <path class="st9" d="M147.1,315.3c0-5.7,2-10.6,7.1-13.5-8.9-10.6-2.8-24.2,7.5-31.1,4.7-3.2,10.6-5.5,16.3-6.3l-4.8-1.3c-20.5-9.5-16.1-42-.5-54.3,7.1-5.6,20.8-9.3,28-2.1s.8,1.4,1.4,1.8c1.2-8,15.5-10.4,18.3-2.5.9,2.5.7,6.2-.6,8.6-.2.3-.6,0-.5.5,4-1.4,3.3-6.3,5.5-9.3,2.4-3.1,7.7-4,10-.3,1.3,2.2.6,4.9.5,7.2,1.6-.1,2.9,0,4.2,1,.4,1.3,1.4,2.6,1.3,4.2.5,0,.4-.8.5-1,.3-.5.7-1.7.8-1.8,0,0,1.1-1.2,1.3-1.4,4.1-4.4,10.1-3.9,10.7,2.9.4,4.8-1.6,9.2-1.3,14,.7,0,1.5-.2,2.1-.7,1.4-1.2,2.3-8.8,3-11.1,1.4-4.9,4.1-11.6,10.4-10.6,9.2,1.5,1.7,16.6,2,22.1,2.8-2.2,3.1-7.7,7.4-7.6,1.8,0,4.2,1.3,4.7,3.1.5,2-1.2,7-1.9,9.1-2,6.5-5,15.1-13.1,15.5-1.1,4.9-2.3,10.3-5,14.6-.1.2-.6.8-.8,1s-.4.6-.5.8c-1.3,1.5-3.2,2.6-4.7,3.8,1.6.6,2.6,1.5,2.9,3.3l1.1-3.5c1.2-2,3.5-2.7,5.8-2.2.9.2,2.3,1.5,2.7,1.5s2-1,2.7-1.2c2.7-.9,4.4-.7,7.1-.8h2.6c3.3-.3,7.4-3.5,9.9-.5.1.1,0,.7.5.8-.2.4.2.9.3,1,.1,1.5-.6,3.7-.5,5.2l3.4-5.2c.7-.1.9-.7,1.3-1s.8-.8,1-1c4.5-3.6,11.3-5.6,16.6-2.4.2,0,2.1-2.2,2.7-2.5s.9-.4,1.3-.5c.9-.3,1.9-.5,2.9-.5,2,0,3.7,1.2,4.4,3.1,2,5.3-2.7,11.4-2.3,16.8,3.3,0,2.8-4.7,6.1-5.2,3.8-.6,6.4,2.2,5.7,6s-4.1,12.7-6.3,15.9c-4.3,6.4-12.7,9-17.7,1.9-4.3,7.1-14.1,10.5-19.5,2.5h-.4c-3.6,5.5-12.1,10.1-18.7,7.3-1.6-.7-2.9-2.7-4.6-.9-.9.9-1,2.1-2.4,3.1-3.8,2.7-6.6,0-7.5-3.9-.7.9-1.6,2.1-2.5,2.9-.4.4-.9.7-1.3,1s-1.4,1.1-1.8,1.3c-3.1,1.8-7.7,2.9-11.2,2-1-.3-2.7-1.5-3.4-1.5,0-.6-.3-.8-.9-.8-1.7,0-2.2,2.4-3.3,3.4-.3.2-.4.6-.9.8-3.1,1.7-5.9.3-6.9-2.9-3.8,5.4-12.3,8.2-17,2.3-.4-.5-1.8-2.6-2-3.1-.2-.6-1-4-1-4.7v-1.6c-.1-2.4.2-4.9-.1-7.3-4.8,5.5-13.6,9-20.8,6.3-.3,1.7-.8,3.3-1.3,5-.2.6-.3,1.6-.5,2.1-.5,1.3-1.6,2.9-2.1,4.2-.2.5-.5.8.3.7-1.3.5-1.5,1.8-2.3,2.8-5.5,7.4-15.4,13.7-24.5,8.2-2.1-1.3-5.3-4.9-6.1-7.1-.2-.5-.7-3.5-.8-4.2v-1.8h0v-.4ZM210.8,204.1c-4.6.6-7.1,3.8-5.9,8.4.9,3.5,3.7,3.9,6.9,3.5,4.7-.5,7.5-4,6.1-8.6-1-3.4-4-3.6-7-3.3h-.1ZM259.7,239.4v3.9c0,1.4-1.8,5.2-2.7,6.5-3.5,5.2-11.8,8.2-15.7,1.9-.7-1.1-.5-2.7-2.2-1.1s-2.6,5.7-2.5,7.9c.5,9,7.6,12.9,15.9,10.4,8.9-2.6,11.2-14.3,12.3-22.3,6.2,3.1,9.8-4.2,11.6-8.9.6-1.7,3.3-9.8,3.1-11s-2.3-1.5-3.2-.9c-.4.3-2.7,5.5-4.5,6.8-2,1.5-4.1,1.1-4.5-1.5-.7-4,2.1-10.1,2.5-14.3.3-3.2.3-6.6-4-5.8-6.2,1.1-5.8,15.7-8.4,19.8-1.4,2.1-5.9,4.1-7.1,1.1-1.9-4.8,1.9-11.2.7-16.1-.7-2.9-2.9-2.7-4.9-1.1-4.3,3.5-4.4,12.1-5.9,16.9-1.6,5.1-11.3,7-12.4.6-.3-2-.1-6.8,1.6-8.2,2.2-1.7,6.4-.7,7.7-2.8.8-1.4.9-4.2-.1-5.6-1.6-.5-5.6,1.8-5.5-.9,0-2,3.3-8.3-.9-8.8-4.6-.5-4.6,4.7-5.8,7.5-.5,1.2-2,3-3.1,3.7-1.8,1.2-4.2.4-3.7,3.3.3,2,2.4,3,4.2,3.1-1.4,4-1.1,12.7-5.2,14.9-3.7,2-5.6-.9-5.5-4.5.1-2.8,3.4-12.9,0-14.4-4.2-1.8-6.7,5.3-7.5,8.2s-1.1,7.1-2,9.7c-1.9,5.2-12,6.9-16.7,6.5-11-.9-13.9-14.1-7.7-21.8,3.2-4,11.5-6.9,11.2.8-.1,3-3.7,8.8,2.4,7.6,10.7-2.2,15.6-23.6.6-25-13-1.2-23.7,8.7-27.6,20.4-5,14.9-.7,38.1,19.5,35.2,8.1-1.2,14.3-6.2,18.1-13.3,1,3.9,2.1,8.4,7,8.5,5.3,0,8.6-4.8,10.7-9,1.6,4.9,4.9,7.2,10.1,5.9,5.2-1.3,8.4-6.1,10.8-10.6,1.8,10.2,13,8.6,16.5.4.6-1.4,1-5.1,2.9-3.6h-.1ZM203,221.8l2.9-3.5c0-.2-1.5-1.6-1.7-1.7-.5-.2-.4.4-.4.6-.2,1.6-.5,3-.8,4.6h0ZM215.3,217.8l-1,.3.5,1.6c.5,0,.6-1.7.5-1.8h0ZM201.7,225.2c0-.3.8-.7.5-1.3-.6.1-.6,1-.8,1.3-2.5,4.3-9.9,10.9-15,7.3-4-2.9.1-7.6-.7-11.5-8.3-.6-11.2,12.5-6.3,17.6,4.1,4.2,14.1,3,18.3-.5,2.2-1.9,1.9-4.5,2.5-7.2.4-1.8.9-4.1,1.4-5.7h.1ZM202.9,222v.3c.2,0,.2-.2,0-.3ZM218.6,225.2c-1.6-.4-2.1-1.9-3.1-2.9.8,4.1-1.8,9-1.3,12.9.3,2.3,2.4-.2,2.8-1.4.3-.9,1.8-8.3,1.6-8.7h0ZM202.5,223.6c.2-.4-.2-.7-.3-.5-.2.4.2.7.3.5ZM238.8,223.9c-.7,0-1.1.7-1.8.9-1.1.4-5.4.6-5.9,1.4-.8,3.2-1.7,8,3.3,7,4-.8,3.6-6.2,4.4-9.3h0ZM233.6,254.7c-3.6,1.7-8.1,2.4-11.8.4-1-.5-1.7-1.4-2.7-2-3.4,5.1-11.5,8.6-16.5,3.7-.4-.4-1.6-2.5-2.1-2.4-3.3,4-7.8,7.3-12.9,8.6,0,.4.4.2.6.3h3.1c10,.9,17.4,6.6,19.1,16.7l2-2.4c-3.9-1.5-4.7-7.4-3.4-10.9,2.1-5.7,11.7-7.6,16.1-3.7.2.2,1.1,1,1.2,1,0,0,0,.5.1.8,0,.2.4.2.4.3.1.4.5,2.2.5,2.7.5,5.4-1.6,8.5-6.5,10.5,3.1,4.7.2,10.5,0,15.4,0,.7-.2,2.2.7,2.2s.5-.1.8-.3c1.8-1,3.6-8.8,4-10.9.8-4.9-.4-12.7,7-11.8,1.4.2,2.4,1.6,2.9,1.6s2-1,2.7-1.2c2.1-.7,4.1-1,6.3-.9,0-.4-.4-.4-.7-.5-3.5-1.2-6.4-2.4-8.5-5.8,0,0-.1-.5-.3-.8s-.4-.8-.5-1c-.2-.4-1-2.8-1-3.1-.2-1.1,0-3.7,0-5s.3-1.4.3-2.1c0,0-.6.4-.8.5h-.1ZM321.8,263.9c-.8-.7-2.7-.3-3.6,0-1.4.6-1.8,1.9-2.9,2.6-2.4,1.6-3-.3-5.1-.9-6.3-1.8-13,3.4-15.8,8.7-2.1,3.9-2,6.9-3.3,10.5-1,3-5.5,5.9-8.5,6.7-1.4.4-7.8,1.4-6.9-1.4.4-1.3,6.5-6.2,7.9-7.8,2-2.4,4-5.5,4.8-8.5.3-1.1,1.2-5.2-.2-5.6-1.1,0-2,.8-3.1,1.2-4.3,1.5-8.9-.2-13.6,1.8-1.3.5-2.6,2-4.2,1.3-.9-.4-.8-2.1-3-1.9-2.6.2-2,3-2.3,4.8-1.1,8.2-2.1,18.2-11.4,21-1.7.5-8.3,1.8-7.2-1.5.4-1.1,7-6.7,8.4-8.3,2.6-3.1,4.8-7.8,4.8-11.9s-3-.5-4.3-.1c-4.1,1.2-8.3-.2-12.7,1.4-1.5.5-3.4,2.4-5,1.5-.2-.1-.6-.9-1-1.2-1.5-1.2-3.4-.5-3.9,1.4-.6,2.4-.5,5.6-.9,8.2-.5,3-2,9.1-4.1,11.3-1.9,2-5.3,2.6-6.4-.5-1.6-4.8,2.7-11.4.6-16-1.1-2.5-3.9-1.4-5.4.1-3.7,4-5.9,18.7-5.6,24.2.3,6.1,2.5,13.5,10.2,10.7,11.6-4.2,8.2-26.2,20.4-29.5,4.5-1.2,6.7.4,3.4,4.4-5,5.9-15.3,11.9-14.1,21.1.1.8.6,2.4,1.4,2.5,2.7.4,2.5-4.2,6-4.7s4.2,2,7.3,2.3c9,.9,14.8-8.2,17.8-15.4,1.9-4.7,2.7-9.9,7.1-13.3,4.3-3.4,12.8-3.5,6.4,3.3-4.2,4.5-10.9,9.1-12.9,15.3-.6,1.8-1.4,8.2,1.8,7.5,1.7-.4,1.8-3.4,4.1-4.3,4-1.6,4.8,1.6,8.2,2,7.7.7,13.4-5.8,16.5-12,.8,4.1,3.5,9,8.3,8.6,5.8-.4,9.9-7.4,11.1-12.5.9-.2.4,1.3.5,1.9.9,5.2,3.8,9.4,9.6,7.1,6.6-2.6,8.8-14.1,10.9-20.1,0-1-1.5-2-2.4-1.9-1.1.1-1.7,2.2-2.4,3.1-1.5,1.9-5.3,3.8-6.9,1.1-2.4-3.9,3-12.2,2.2-16.6,0-.4-.5-1.5-.8-1.7h.2ZM217.8,263.9c-4.9.5-8.1,3.9-6.3,9s11.5,3.5,12.8-1.4c1.4-5.1-1.5-8.2-6.6-7.6h.1ZM187.3,266c-10.6.2-22.9,4-29.9,12.2-4.4,5.1-6.6,13.5-2.9,19.6,5.4,8.8,19,2.2,17.3-5.8-.3-1.5-2.3-.5-3.3-2.7-4.8-11,20.8-17.8,26.2-10.3,3.4,4.8,1.6,12.9-4.3,14.7-4.2,1.3-5-.2-4.7-4.1.2-2.3,2.8-9.3-.4-9.8s-5.2.7-6.2,3.7c-2.6,8-1.9,17.8-9.3,23.6-3.3,2.6-8.4,2.9-10.5-1.3-.5-.9-.2-1.9-1.4-2-3.3-.3-6.6,3.9-7.5,6.7-3.4,10.7,4.8,19.9,15.9,16.1,7.9-2.6,12.1-10.8,14.5-18.1.5-1.4.9-5,2.1-5.7,1.5-.9,3.3.6,4.7.8,10,1.3,19.4-7.4,20.2-17.1,1.1-13.7-7.7-20.6-20.7-20.4h.2ZM291.3,274.8c.2-.4-.2-.7-.3-.5-.2.4.2.7.3.5ZM188.4,291.2c6.6-.4,7.4-11.6.6-12.5-.1.8.5,1.4.6,2.2.5,3.3-1.1,7-1.3,10.3h0ZM280.6,289.1c2.9-.3,7-2.7,8-5.5.5-1.3.6-3.3.9-4.7-1.4,1.9-2.7,4-4.3,5.8-1.4,1.6-3.2,2.8-4.6,4.4h0ZM247.9,294.1c7.5-.9,9.9-8,10.7-14.6l-1.6,4c-2.1,4.3-5.7,7.5-9.1,10.6h0ZM177.4,280.3c-3.4,1-7.6,4-6.3,8.1,2-1,2.8.9,3.1,2.6.7,0,.4,0,.5-.4,1-3.4,1.1-7.1,2.6-10.3h0ZM272,283.9c-2.8.6-5.1,3.1-6,5.7.5.1.6-.3.9-.5.9-.8,2.2-2,3.1-2.9s2.2-2.1,2-2.4h0ZM239.6,288.9c-3,.4-5.1,3.2-6.3,5.9,2.4-1.5,4.3-3.8,6.3-5.9ZM265.8,289.9v.3c.2,0,.2-.2,0-.3ZM162,304.5c0,.7.8,1.2,1.4,1.4,3.4,1,6.3-2,7.8-4.7-1.1.5-2,1.4-3.1,1.9-1.8.9-4,1.5-6.1,1.4h0Z"/>
    <path class="st9" d="M313,140.8c.1-.1,3-1.1,3.4-1.2,6.4-1.8,13.8-.5,16.4,6.3l1.1,4c1-6.2,2-12.6,3.7-18.6,1.5-5.3,3.9-13.2,10.8-12.7,1,0,2.2.5,3,1.2,4.7,4.2-1.5,14.6-1.8,19.7l2.7-3.4c7.2-6.4,18.4-2.9,16.7,7.9-.9,5.6-5.8,6.7-10.3,8-.2,0-.8,0-.6.5.8,1.7,7.7,0,9.1-1.1,2.1-1.5,2.4-4.6,5.6-4.8,2.6-.1,5.2,2.5,5.1,5.1,0,1.2-1.9,6.1-2.4,7.5-3.7,9.8-12.9,22.9-23.7,12.6l-2.9-5.1v5.1c0,1.2-1.9,3.9-2.9,4.7-4.2,3.3-10.6,1.9-12.9-3-5.1,5.9-12.3,9.6-20.2,7.8-.5-.1-1.3-.2-1.6-.3,0,0-.4-.3-.8-.5-1.8-.8-3.2-2.1-4.7-3.4-2.8,6.6-11.3,11.2-17.4,5.6l-1.5-1.7c-5.3,8.9-17.2,10.1-20.9-.8-.9.7-3,1.1-3.8,1.7-.6.5-1.5,2.3-2.1,3.1-4.9,6.1-12.1,9.6-19.8,6.1-.4-.2-1.4-.8-1.8-1-.3-.2-.8-.5-1-.8-1.1-.9-2-2-2.7-3.1-4.9,7.4-14.5,13.1-23.5,9.9-2.7-1-4.2-2.6-6.3-4.4-2.5,3.9-5.6,7.7-10.3,8.8-9.5,2.2-12.3-6.4-11.8-14.1.2-2.7,1.3-5.5.9-8.2-1.9,1.1-3.2,3.8-3.5,5.9-.6,4.7,2.3,8.2,1.2,13-1.8,8-14.5,9.5-17.1.8-1.7-5.6.5-9.3,1-14.6,0-.4.3-2.1-.4-2-1.8.3-3.1,4.6-3.2,6.2-.6,5.8,3.7,14.6-3.5,18.2-5.8,2.9-11.8-.2-12.6-6.6-.8.7-2.8.7-3.5,1.2-.4.2-1.9,2.9-2.5,3.5-6.6,7.9-18.3,10.4-25.3,1.6-4,5.2-9.1,9.1-15.5,10.6-23,5.4-30.6-18.5-25.4-36.6,3.9-13.4,15.6-25.3,30.5-24.1,13.9,1.1,15.9,16.4,7.8,25.6-2.8,3.2-10.3,7.9-13.7,3.3-2.5-3.4,1.1-6.6,0-10.3-4-1.2-7.3,3.4-8.1,6.8-1.4,5.7.3,11.6,6.6,13,3.9.9,13.6-.7,15.2-5,2.1-5.4,2-8.4,6-13.3,7.6-9.4,22.7-11.5,27,1.9l1.4,6.3c.8-4.7,2.3-16.2,6.7-18.8,2.7-1.6,6.3-.1,7.3,2.8,4.4-5.3,12-8.2,17.8-3.1,6.4-8.4,21.8-7.7,21,5.3-.1,2.4-1.4,5.1-.9,7.5.3,1.5,1.6.4,2.1-.3,1.3-1.5,1.8-6.5,2.8-9,4.7-11.9,21.5-20.7,29.5-7.2l1,2.8c1.9-7.6,2.5-18,6.4-24.8,2-3.4,6.1-6.5,10.1-4.2,4.4,2.5,2,9,1,12.8-.2.9-.8,1.8-.8,2.7.4.5.7-.4.8-.4.9-.4.5-.2,1-.5.4-.2,4.5-.3,5.2-.3,0,0,.8.2,1,.3.3,0,1.3.4,1.6.5.2,0,.5.4.8.5,0,0,1,.7,1,.8.8.7,2.1,2.2,2.6,3.1,0,0,.4,1.1.5,1.3.4,1.1.7,2.5,1,3.7.1.4-.2,1.1.5,1.3,1.3-5.4,5-11.1,9.9-13.7,3.1-1.7,7.6-2.7,11-1.8.8.2,2.4,1.3,2.9,1.2,4.9-5.7,12.7-4.3,11.6,4.3-.2,1.8-3.6,11.4-2.8,12.2,2.8,0,2.3-2.3,2.7-4.2,1.2-5.9,4.1-12.5,9.1-16.1,0,0,1.1-.5,1.6-.8.7-.4.5-.5.5-.5h0l.2-.2ZM143.2,188.9v-6.9c0-3.6-2.9-9.2-6.3-10.7-8.2-3.7-16.9,3.9-20.1,10.9-2,4.3-1.4,8.3-5.6,11.2-4.9,3.4-13.9,4.5-19.1,1.4-7-4.2-6.7-15.4-1.5-20.9,3.2-3.4,10.7-5.5,10.6,1.4,0,2.9-3.5,8.4,1.7,8,9.4-.8,16.1-19.7,4.8-24.1-12.1-4.8-25,5.7-29.8,16.1-6.9,15.1-3.5,41.8,18.4,38.5,8.2-1.3,14.8-6.8,18.2-14.3l2.5,4.7c5.8,7.1,15.2,4.2,20.5-1.9.7-.8,2.4-3.8,2.9-4.1.6-.4,2.9-.8,4-1.2,1.5-.6,2.6-1.6,3.8-2.6,0,5.1.9,11.4,7.6,9.5,6.8-1.9,2.8-10.8,3.1-15.7.3-3.7,2.6-10,7.2-9.5,2.4.2,2.3,3,2.2,4.8-.4,4.8-2.9,9.6-.9,14.5,2.2,5.4,10.9,3.6,11.6-2.2.6-5.3-3.1-7.9-.6-14.7,1.9-5.1,9-8.9,8.5-.9-.2,2.7-1.3,5.8-1.3,8.6s1.3,8.8,5.2,9.5c5.7,1,10-4.1,12.4-8.6.3-.6,1.4-3.7,1.5-3.8.5-.5.4.2.5.4.7,1.4,1.1,2.7,2.1,3.9,6.9,8.9,19.9,3.2,25-4.7l2.9-4.5c1.8,7.4,9.2,11.2,16.4,8.1,2.2-1,4.8-3.3,6.4-5.1.8-.9,1.8-3.2,2.5-3.8s3.1-1.2,4.3-2,2-1.7,3-2.7c.7,4,2.5,9.8,7.3,10.2,7,.6,10.7-6.8,12.8-12.3.4,3.4,1.5,8.9,5.7,9.4,6.6.8,10.1-5.6,11.9-11,.6-.1.4,0,.6.3,2,3.1,2.7,5.3,6.6,6.7,8.9,3.1,17.7-4.2,21.9-11.4.5,4.6,2.2,10,8,8.3,6.8-2,2.2-11,2.8-15.7.2-2,2.4-2.8,3.6-1.3,1,1.3,2.2,6.4,3.1,8.4,2.3,5.1,5,7.6,10.8,5.2,7.3-3,10.2-13.5,12.3-20.4-2.1-4.4-3.1-.8-4.6.9-2.4,2.9-9.9,4.6-13.3,3.1-2-.9-2.7-3.5-1.1-5.2,1.7-1.8,6.4-.8,9-4.3,2.4-3.3,1-9.6-3.5-10.1-5.6-.6-8.7,2.8-10.8,7.5-.9,2.2-1.4,6.8-4.1,6.9s-1.3-5.3-1-7.1c.9-5.5,4.4-13.2,4.6-18.1.1-2.7-1-4-3.7-3.5-4.7.9-6.8,12.1-7.7,16.1-2.2,10-1.4,23.5-13.1,27.1-6.8,2.1-13-1.8-11.4-9.3,1.1-5.1,7.5-6.1,7.5-1.4s-3,4.6,1.2,5.1c9.1,1.1,11.1-14.9,1.2-17.1s-17.8,6.9-19.6,15.8c-.6,2.8.2,5.1-2.6,6.8-1.3.8-3.7,1.3-4.9,0-3-3.3,2.9-13.1,1.9-17.6-.4-1.9-2.6-1.9-4-1.3-1.6.7-3,3.2-4.7,3.4-1,0-2.9-1.6-4.6-1.8-8-.8-13.7,5.6-16.2,12.5-1,2.8-1.2,7.2-3.2,9.1-.8.7-2,1.2-2.9,1.7.5-5.1.9-14.4-3.8-17.8-2.3-1.7-6.1-1.4-8.5.1-1.5,1-3,4.3-4.7,2.8,0-5,4.1-12.6,3.4-17.2-.6-3.4-4.9-1.7-6.5.2-5.5,6.8-5.7,24.6-8.5,33-2.9,5.6-9.5,9.8-15.9,9.4-1.9-.1-5.5-1.2-4.8-3.8.2-.7,3.7.4,4.6.4,16.2-.2,16.7-24.9-.6-20.5-6.4,1.6-11.1,7.3-12.9,13.4-.9,3-.7,6.8-3.4,8.8-2,1.6-5,1.4-6-1.3-1.5-4,1.8-8.1.2-12.7-2-5.7-9.7-4.7-13.6-1.5-1.1.9-3.7,4.4-4.3,4.6-.9.2-.7-.6-1.1-1.2-3-4.3-8-3.6-11.8-.7-1.3,1-3.9,4.8-5.1,4.8-2.7.1-1.1-5.9-5.1-4.6-2.2.7-4,8.5-4.5,10.6-1.1,4.6-.8,10.6-6.9,11.2h0l-.6-.2ZM316.9,158c.1,1.3.5,2,1.3,2.9,1.4,1.6,3,1.7,5.1,1.5l2.2-.8c-3.1.4-7.8-.6-7.6-4.6,0-1.2,1-2.1,1-3.3-1.9,0-2.2,2.7-2.1,4.2h.1Z"/>
    <path class="st10" d="M210.8,204.1c3.1-.4,6.1-.1,7,3.3,1.4,4.7-1.4,8.1-6.1,8.6-3.2.3-6,0-6.9-3.5-1.2-4.6,1.3-7.8,5.9-8.4h.1Z"/>
    <path class="st9" d="M131,180.8c-6.2.6-6.1,5.7-6.1,5.7-.6,6.8,3.7,6.1,3.7,6.1,5.1,0,6.5-6.1,6.5-6.1.5-6-4.1-5.7-4.1-5.7h0ZM131.9,186.3c-.2.9-.9,3.2-3.4,3.5,0,0-1.1-.1-.9-2.3,0,0,.4-2.5,2.6-3.6,0,0,1.6-.2,1.6.4s.3,1,0,2h0Z"/>
    <path class="st9" d="M250.7,163c-6.1.6-6,5.5-6,5.5-.6,6.6,3.6,6,3.6,6,5,0,6.4-6,6.4-6,.5-5.8-4-5.5-4-5.5h0ZM251.7,168.4c-.2.9-.9,3.1-3.3,3.4,0,0-1-.1-.9-2.2,0,0,.3-2.4,2.5-3.5,0,0,1.6-.2,1.6.4s.3,1,0,1.9h0Z"/>
    <path class="st9" d="M219.4,164.6c-5.3.4-5.2,3.8-5.2,3.8-.5,4.6,3.1,4.1,3.1,4.1,4.3,0,5.5-4.1,5.5-4.1.4-4-3.5-3.8-3.5-3.8h0ZM220.2,168.2c-.2.6-.8,2.1-2.9,2.4,0,0-.9,0-.8-1.5,0,0,.3-1.7,2.2-2.4,0,0,1.4-.2,1.4.3s.2.7,0,1.3h.1Z"/>
    <path class="st9" d="M283.5,157.5c-6.2.6-6.1,5.6-6.1,5.6-.6,6.7,3.7,6.1,3.7,6.1,5.1,0,6.5-6.1,6.5-6.1.5-5.9-4-5.6-4-5.6h-.1ZM285,162.8c-.2.9-.5,3.6-3.9,3.7,0,0-1.5.1-1.3-2,0,0,.1-3,1.9-4,0,0,1.1-.8,2.3-.1.6.3,1.2,1.6,1,2.5h0Z"/>
    <path class="st9" d="M306.9,276.1c-6.2.6-6.1,5.6-6.1,5.6-.6,6.7,3.7,6.1,3.7,6.1,5.1,0,6.5-6.1,6.5-6.1.5-5.9-4-5.6-4-5.6h-.1ZM308.3,281.4c-.2.9-.5,3.6-3.9,3.7,0,0-1.5.1-1.3-2,0,0,.1-3,1.9-4,0,0,1.1-.8,2.3-.1.6.3,1.2,1.6,1,2.5h0Z"/>
  </g>
</svg>